%TF.GenerationSoftware,Altium Limited,Altium Designer,22.9.1 (49)*%
G04 Layer_Color=0*
%FSLAX45Y45*%
%MOMM*%
%TF.SameCoordinates,925A93EA-3B44-44BF-AA41-ED200E7300F1*%
%TF.FilePolarity,Positive*%
%TF.FileFunction,NonPlated,1,4,NPTH,Drill*%
%TF.Part,Single*%
G01*
G75*
%TA.AperFunction,ComponentDrill*%
%ADD99C,1.50000*%
%ADD100C,1.50000*%
G36*
X8640635Y5769927D02*
X8640635Y5754168D01*
X8646784Y5723256D01*
X8658845Y5694138D01*
X8676355Y5667933D01*
X8698641Y5645647D01*
X8724847Y5628137D01*
X8753965Y5616075D01*
X8784877Y5609927D01*
X8800635Y5609927D01*
X8816394Y5609927D01*
X8847305Y5616075D01*
X8876423Y5628137D01*
X8902629Y5645647D01*
X8924915Y5667933D01*
X8942425Y5694138D01*
X8954486Y5723256D01*
X8960635Y5754168D01*
X8960635Y5769927D01*
X8960635Y5785685D01*
X8954486Y5816597D01*
X8942425Y5845715D01*
X8924915Y5871921D01*
X8902629Y5894207D01*
X8876423Y5911717D01*
X8847305Y5923778D01*
X8816394Y5929927D01*
X8800635Y5929927D01*
X8784877Y5929927D01*
X8753965Y5923778D01*
X8724847Y5911717D01*
X8698641Y5894207D01*
X8676355Y5871921D01*
X8658845Y5845715D01*
X8646784Y5816597D01*
X8640635Y5785685D01*
X8640635Y5769927D01*
X8640635Y5769927D01*
X8640635Y5769927D02*
G37*
G36*
X7540635Y5769927D02*
X7540635Y5754168D01*
X7546784Y5723256D01*
X7558845Y5694138D01*
X7576355Y5667933D01*
X7598641Y5645647D01*
X7624847Y5628137D01*
X7653965Y5616075D01*
X7684876Y5609927D01*
X7700635Y5609927D01*
X7716394Y5609927D01*
X7747305Y5616075D01*
X7776423Y5628137D01*
X7802629Y5645647D01*
X7824915Y5667933D01*
X7842425Y5694138D01*
X7854486Y5723256D01*
X7860635Y5754168D01*
X7860635Y5769927D01*
X7860635Y5785685D01*
X7854486Y5816597D01*
X7842425Y5845715D01*
X7824915Y5871921D01*
X7802629Y5894207D01*
X7776423Y5911717D01*
X7747305Y5923778D01*
X7716394Y5929927D01*
X7700635Y5929927D01*
X7684876Y5929927D01*
X7653965Y5923778D01*
X7624847Y5911717D01*
X7598641Y5894207D01*
X7576355Y5871921D01*
X7558845Y5845715D01*
X7546784Y5816597D01*
X7540635Y5785685D01*
X7540635Y5769927D01*
X7540635Y5769927D01*
X7540635Y5769927D02*
G37*
G36*
X8640635Y400635D02*
X8640635Y384876D01*
X8646784Y353964D01*
X8658845Y324846D01*
X8676355Y298641D01*
X8698641Y276355D01*
X8724847Y258845D01*
X8753965Y246784D01*
X8784877Y240635D01*
X8800635Y240635D01*
X8816394Y240635D01*
X8847305Y246784D01*
X8876423Y258845D01*
X8902629Y276355D01*
X8924915Y298641D01*
X8942425Y324846D01*
X8954486Y353964D01*
X8960635Y384876D01*
X8960635Y400635D01*
X8960635Y416393D01*
X8954486Y447305D01*
X8942425Y476423D01*
X8924915Y502629D01*
X8902629Y524915D01*
X8876423Y542425D01*
X8847305Y554486D01*
X8816394Y560635D01*
X8800635Y560635D01*
X8784877Y560635D01*
X8753965Y554486D01*
X8724847Y542425D01*
X8698641Y524915D01*
X8676355Y502629D01*
X8658845Y476423D01*
X8646784Y447305D01*
X8640635Y416393D01*
X8640635Y400635D01*
X8640635Y400635D01*
X8640635Y400635D02*
G37*
G36*
X7540635Y400635D02*
X7540635Y384876D01*
X7546784Y353964D01*
X7558845Y324846D01*
X7576355Y298641D01*
X7598641Y276355D01*
X7624847Y258845D01*
X7653965Y246784D01*
X7684876Y240635D01*
X7700635Y240635D01*
X7716394Y240635D01*
X7747305Y246784D01*
X7776423Y258845D01*
X7802629Y276355D01*
X7824915Y298641D01*
X7842425Y324846D01*
X7854486Y353964D01*
X7860635Y384876D01*
X7860635Y400635D01*
X7860635Y416393D01*
X7854486Y447305D01*
X7842425Y476423D01*
X7824915Y502629D01*
X7802629Y524915D01*
X7776423Y542425D01*
X7747305Y554486D01*
X7716394Y560635D01*
X7700635Y560635D01*
X7684876Y560635D01*
X7653965Y554486D01*
X7624847Y542425D01*
X7598641Y524915D01*
X7576355Y502629D01*
X7558845Y476423D01*
X7546784Y447305D01*
X7540635Y416393D01*
X7540635Y400635D01*
X7540635Y400635D01*
X7540635Y400635D02*
G37*
G36*
X7540635Y400635D02*
X7540635Y384876D01*
X7546784Y353964D01*
X7558845Y324846D01*
X7576355Y298641D01*
X7598641Y276355D01*
X7624847Y258845D01*
X7653965Y246784D01*
X7684876Y240635D01*
X7700635Y240635D01*
X7716394Y240635D01*
X7747305Y246784D01*
X7776423Y258845D01*
X7802629Y276355D01*
X7824915Y298641D01*
X7842425Y324846D01*
X7854486Y353964D01*
X7860635Y384876D01*
X7860635Y400635D01*
X7860635Y416393D01*
X7854486Y447305D01*
X7842425Y476423D01*
X7824915Y502629D01*
X7802629Y524915D01*
X7776423Y542425D01*
X7747305Y554486D01*
X7716394Y560635D01*
X7700635Y560635D01*
X7684876Y560635D01*
X7653965Y554486D01*
X7624847Y542425D01*
X7598641Y524915D01*
X7576355Y502629D01*
X7558845Y476423D01*
X7546784Y447305D01*
X7540635Y416393D01*
X7540635Y400635D01*
X7540635Y400635D01*
X7540635Y400635D02*
G37*
G36*
X1000635Y5609927D02*
X984876Y5609927D01*
X953965Y5616075D01*
X924847Y5628137D01*
X898641Y5645647D01*
X876355Y5667933D01*
X858845Y5694138D01*
X846784Y5723256D01*
X840635Y5754168D01*
X840635Y5769927D01*
X840635Y5785685D01*
X846784Y5816597D01*
X858845Y5845715D01*
X876355Y5871921D01*
X898641Y5894207D01*
X924847Y5911717D01*
X953965Y5923778D01*
X984876Y5929927D01*
X1000635Y5929927D01*
X1016393Y5929927D01*
X1047305Y5923778D01*
X1076423Y5911717D01*
X1102629Y5894207D01*
X1124915Y5871921D01*
X1142425Y5845715D01*
X1154486Y5816597D01*
X1160635Y5785685D01*
X1160635Y5769927D01*
X1160635Y5754168D01*
X1154486Y5723256D01*
X1142425Y5694138D01*
X1124915Y5667933D01*
X1102629Y5645647D01*
X1076423Y5628137D01*
X1047305Y5616075D01*
X1016393Y5609927D01*
X1000635Y5609927D01*
X1000635Y5609927D01*
X1000635Y5609927D02*
G37*
G36*
X2100635Y5609927D02*
X2084876Y5609927D01*
X2053965Y5616075D01*
X2024847Y5628137D01*
X1998641Y5645647D01*
X1976355Y5667933D01*
X1958845Y5694138D01*
X1946784Y5723256D01*
X1940635Y5754168D01*
X1940635Y5769927D01*
X1940635Y5785685D01*
X1946784Y5816597D01*
X1958845Y5845715D01*
X1976355Y5871921D01*
X1998641Y5894207D01*
X2024847Y5911717D01*
X2053965Y5923778D01*
X2084876Y5929927D01*
X2100635Y5929927D01*
X2116394Y5929927D01*
X2147305Y5923778D01*
X2176423Y5911717D01*
X2202629Y5894207D01*
X2224915Y5871921D01*
X2242425Y5845715D01*
X2254486Y5816597D01*
X2260635Y5785685D01*
X2260635Y5769927D01*
X2260635Y5754168D01*
X2254486Y5723256D01*
X2242425Y5694138D01*
X2224915Y5667933D01*
X2202629Y5645647D01*
X2176423Y5628137D01*
X2147305Y5616075D01*
X2116394Y5609927D01*
X2100635Y5609927D01*
X2100635Y5609927D01*
X2100635Y5609927D02*
G37*
G36*
X1940635Y400635D02*
X1940635Y384876D01*
X1946784Y353964D01*
X1958845Y324846D01*
X1976355Y298641D01*
X1998641Y276355D01*
X2024847Y258845D01*
X2053965Y246784D01*
X2084876Y240635D01*
X2100635Y240635D01*
X2116394Y240635D01*
X2147305Y246784D01*
X2176423Y258845D01*
X2202629Y276355D01*
X2224915Y298641D01*
X2242425Y324846D01*
X2254486Y353964D01*
X2260635Y384876D01*
X2260635Y400635D01*
X2260635Y416393D01*
X2254486Y447305D01*
X2242425Y476423D01*
X2224915Y502629D01*
X2202629Y524915D01*
X2176423Y542425D01*
X2147305Y554486D01*
X2116394Y560635D01*
X2100635Y560635D01*
X2084876Y560635D01*
X2053965Y554486D01*
X2024847Y542425D01*
X1998641Y524915D01*
X1976355Y502629D01*
X1958845Y476423D01*
X1946784Y447305D01*
X1940635Y416393D01*
X1940635Y400635D01*
X1940635Y400635D01*
X1940635Y400635D02*
G37*
G36*
X840635Y400635D02*
X840635Y384876D01*
X846784Y353964D01*
X858845Y324846D01*
X876355Y298641D01*
X898641Y276355D01*
X924847Y258845D01*
X953965Y246784D01*
X984876Y240635D01*
X1000635Y240635D01*
X1016393Y240635D01*
X1047305Y246784D01*
X1076423Y258845D01*
X1102629Y276355D01*
X1124915Y298641D01*
X1142425Y324846D01*
X1154486Y353964D01*
X1160635Y384876D01*
X1160635Y400635D01*
X1160635Y416393D01*
X1154486Y447305D01*
X1142425Y476423D01*
X1124915Y502629D01*
X1102629Y524915D01*
X1076423Y542425D01*
X1047305Y554486D01*
X1016393Y560635D01*
X1000635Y560635D01*
X984876Y560635D01*
X953965Y554486D01*
X924847Y542425D01*
X898641Y524915D01*
X876355Y502629D01*
X858845Y476423D01*
X846784Y447305D01*
X840635Y416393D01*
X840635Y400635D01*
X840635Y400635D01*
X840635Y400635D02*
G37*
D99*
X1003000Y4430700D02*
D03*
X291800Y5154600D02*
D03*
X1688800Y5154600D02*
D03*
X8305500Y1005500D02*
D03*
D100*
X9451000Y1740200D02*
D03*
X7774600Y1371900D02*
D03*
X2102900Y1484600D02*
D03*
%TF.MD5,9a9f8c478f8b6dd50e50d54f4e359fa3*%
M02*
