%TF.GenerationSoftware,Altium Limited,Altium Designer,22.9.1 (49)*%
G04 Layer_Color=8421504*
%FSLAX45Y45*%
%MOMM*%
%TF.SameCoordinates,925A93EA-3B44-44BF-AA41-ED200E7300F1*%
%TF.FilePolarity,Positive*%
%TF.FileFunction,Paste,Top*%
%TF.Part,Single*%
G01*
G75*
%TA.AperFunction,SMDPad,CuDef*%
G04:AMPARAMS|DCode=10|XSize=1mm|YSize=1.1mm|CornerRadius=0mm|HoleSize=0mm|Usage=FLASHONLY|Rotation=315.000|XOffset=0mm|YOffset=0mm|HoleType=Round|Shape=Rectangle|*
%AMROTATEDRECTD10*
4,1,4,-0.74246,-0.03535,0.03535,0.74246,0.74246,0.03535,-0.03535,-0.74246,-0.74246,-0.03535,0.0*
%
%ADD10ROTATEDRECTD10*%

%ADD11R,1.00000X1.40000*%
%ADD12R,1.00000X1.10000*%
%ADD13R,0.30000X0.47500*%
%ADD14R,1.65000X5.60000*%
%ADD15R,1.10000X1.00000*%
%ADD16R,1.10000X1.80000*%
%ADD17R,4.00000X2.50000*%
%ADD18R,2.00000X1.00000*%
%ADD19R,2.00000X1.00000*%
%ADD20R,1.40000X1.00000*%
%ADD21R,1.90000X1.90000*%
%ADD22R,2.79000X0.74000*%
G04:AMPARAMS|DCode=23|XSize=1.475mm|YSize=0.6mm|CornerRadius=0mm|HoleSize=0mm|Usage=FLASHONLY|Rotation=225.000|XOffset=0mm|YOffset=0mm|HoleType=Round|Shape=Rectangle|*
%AMROTATEDRECTD23*
4,1,4,0.30936,0.73362,0.73362,0.30936,-0.30936,-0.73362,-0.73362,-0.30936,0.30936,0.73362,0.0*
%
%ADD23ROTATEDRECTD23*%

G04:AMPARAMS|DCode=24|XSize=1.475mm|YSize=0.6mm|CornerRadius=0mm|HoleSize=0mm|Usage=FLASHONLY|Rotation=135.000|XOffset=0mm|YOffset=0mm|HoleType=Round|Shape=Rectangle|*
%AMROTATEDRECTD24*
4,1,4,0.73362,-0.30936,0.30936,-0.73362,-0.73362,0.30936,-0.30936,0.73362,0.73362,-0.30936,0.0*
%
%ADD24ROTATEDRECTD24*%

%ADD25R,0.60000X0.25000*%
%ADD26R,3.50000X0.50000*%
%ADD27R,1.67500X0.50000*%
%ADD28R,3.50000X1.40000*%
%ADD29R,0.25000X0.60000*%
%ADD30R,0.65000X1.52500*%
G04:AMPARAMS|DCode=31|XSize=1mm|YSize=1.1mm|CornerRadius=0mm|HoleSize=0mm|Usage=FLASHONLY|Rotation=225.000|XOffset=0mm|YOffset=0mm|HoleType=Round|Shape=Rectangle|*
%AMROTATEDRECTD31*
4,1,4,-0.03535,0.74246,0.74246,-0.03535,0.03535,-0.74246,-0.74246,0.03535,-0.03535,0.74246,0.0*
%
%ADD31ROTATEDRECTD31*%

G04:AMPARAMS|DCode=32|XSize=1mm|YSize=1.4mm|CornerRadius=0mm|HoleSize=0mm|Usage=FLASHONLY|Rotation=225.000|XOffset=0mm|YOffset=0mm|HoleType=Round|Shape=Rectangle|*
%AMROTATEDRECTD32*
4,1,4,-0.14142,0.84853,0.84853,-0.14142,0.14142,-0.84853,-0.84853,0.14142,-0.14142,0.84853,0.0*
%
%ADD32ROTATEDRECTD32*%

%ADD33R,1.90000X1.90000*%
%ADD34R,0.80000X0.80000*%
%TA.AperFunction,ConnectorPad*%
%ADD35R,1.40000X1.60000*%
%ADD36R,1.35000X0.40000*%
%TA.AperFunction,SMDPad,CuDef*%
%ADD37R,0.60000X1.20000*%
%ADD38R,1.25000X0.60000*%
D10*
X2232396Y3512604D02*
D03*
X2352604Y3392396D02*
D03*
X2132396Y3415104D02*
D03*
X2252604Y3294896D02*
D03*
X2040104Y1947396D02*
D03*
X1919896Y2067604D02*
D03*
D11*
X8985601Y3252700D02*
D03*
X8785600Y3252700D02*
D03*
X8987500Y3427500D02*
D03*
X8787500Y3427500D02*
D03*
D12*
X8970601Y3092201D02*
D03*
X8800600Y3092201D02*
D03*
X9020000Y2552500D02*
D03*
X8850000Y2552500D02*
D03*
X9205000Y2810000D02*
D03*
X9375000Y2810000D02*
D03*
X9375000Y2960000D02*
D03*
X9205000Y2960000D02*
D03*
X8387500Y2017500D02*
D03*
X8217500Y2017500D02*
D03*
X9673500Y4191000D02*
D03*
X9503500Y4191000D02*
D03*
X9673500Y4406900D02*
D03*
X9503500Y4406900D02*
D03*
X8873400Y4191000D02*
D03*
X8703400Y4191000D02*
D03*
X8873400Y4406900D02*
D03*
X8703400Y4406900D02*
D03*
X8086000Y4191000D02*
D03*
X7916000Y4191000D02*
D03*
X8086000Y4406900D02*
D03*
X7916000Y4406900D02*
D03*
X4347300Y2921000D02*
D03*
X4517300Y2921000D02*
D03*
X4347300Y2374900D02*
D03*
X4517300Y2374900D02*
D03*
X5755000Y2920000D02*
D03*
X5925000Y2920000D02*
D03*
X5757000Y2387600D02*
D03*
X5927000Y2387600D02*
D03*
X2963000Y2387600D02*
D03*
X3133000Y2387600D02*
D03*
X435700Y3810000D02*
D03*
X605700Y3810000D02*
D03*
D13*
X9035000Y2973800D02*
D03*
X8985000Y2973800D02*
D03*
X8935000Y2973800D02*
D03*
X8885000Y2973800D02*
D03*
X8885000Y2806200D02*
D03*
X8935000Y2806200D02*
D03*
X8985000Y2806200D02*
D03*
X9035000Y2806200D02*
D03*
D14*
X8190000Y2430000D02*
D03*
X8605000Y2430000D02*
D03*
D15*
X9210000Y2490000D02*
D03*
X9210000Y2660000D02*
D03*
X1070000Y2082500D02*
D03*
X1070000Y1912500D02*
D03*
X8496300Y4194900D02*
D03*
X8496300Y4364900D02*
D03*
X9093200Y4194900D02*
D03*
X9093200Y4364900D02*
D03*
X9296400Y4194900D02*
D03*
X9296400Y4364900D02*
D03*
X7518399Y4194900D02*
D03*
X7518399Y4364900D02*
D03*
X7708900Y4194900D02*
D03*
X7708900Y4364900D02*
D03*
X8305800Y4194900D02*
D03*
X8305800Y4364900D02*
D03*
X3111500Y3094900D02*
D03*
X3111500Y2924900D02*
D03*
X1597500Y1072500D02*
D03*
X1597500Y902500D02*
D03*
X1257300Y3958500D02*
D03*
X1257300Y3788500D02*
D03*
X1270000Y3615600D02*
D03*
X1270000Y3445600D02*
D03*
D16*
X8212500Y1827500D02*
D03*
X8512500Y1827500D02*
D03*
D17*
X9520000Y3300000D02*
D03*
X9520000Y2455000D02*
D03*
D18*
X207500Y1600000D02*
D03*
X807500Y1600000D02*
D03*
D19*
X207500Y1200000D02*
D03*
X807500Y1200000D02*
D03*
D20*
X1065000Y1200000D02*
D03*
X1065000Y1400000D02*
D03*
D21*
X9440000Y5337500D02*
D03*
X8647500Y5327500D02*
D03*
X8247500Y5337500D02*
D03*
X7463700Y5337500D02*
D03*
X7857500Y5337500D02*
D03*
X9051200Y5337500D02*
D03*
D22*
X737000Y1914100D02*
D03*
X330000Y1914100D02*
D03*
X737000Y2041100D02*
D03*
X330000Y2041100D02*
D03*
X737000Y2168100D02*
D03*
X330000Y2168100D02*
D03*
X737000Y2295100D02*
D03*
X330000Y2295100D02*
D03*
X737000Y2422100D02*
D03*
X330000Y2422100D02*
D03*
D23*
X1803318Y2156638D02*
D03*
X1746750Y2213207D02*
D03*
X1690181Y2269775D02*
D03*
X1633612Y2326344D02*
D03*
X1577044Y2382912D02*
D03*
X1520475Y2439481D02*
D03*
X1463907Y2496050D02*
D03*
X1407338Y2552618D02*
D03*
X2006682Y3151962D02*
D03*
X2063250Y3095393D02*
D03*
X2119819Y3038825D02*
D03*
X2176388Y2982256D02*
D03*
X2232956Y2925688D02*
D03*
X2289525Y2869119D02*
D03*
X2346093Y2812550D02*
D03*
X2402662Y2755982D02*
D03*
D24*
X1407338Y2755982D02*
D03*
X1463907Y2812550D02*
D03*
X1520475Y2869119D02*
D03*
X1577044Y2925688D02*
D03*
X1633612Y2982256D02*
D03*
X1690181Y3038825D02*
D03*
X1746750Y3095393D02*
D03*
X1803318Y3151962D02*
D03*
X2402662Y2552618D02*
D03*
X2346093Y2496050D02*
D03*
X2289525Y2439481D02*
D03*
X2232956Y2382912D02*
D03*
X2176388Y2326344D02*
D03*
X2119819Y2269775D02*
D03*
X2063250Y2213207D02*
D03*
X2006682Y2156638D02*
D03*
D25*
X7798100Y4688900D02*
D03*
X7798100Y4738900D02*
D03*
X7798100Y4788900D02*
D03*
X7518100Y4788900D02*
D03*
X7518100Y4738900D02*
D03*
X7518100Y4688900D02*
D03*
X8309400Y4688900D02*
D03*
X8309400Y4738900D02*
D03*
X8309400Y4788900D02*
D03*
X8589400Y4788900D02*
D03*
X8589400Y4738900D02*
D03*
X8589400Y4688900D02*
D03*
X9385600Y4688900D02*
D03*
X9385600Y4738900D02*
D03*
X9385600Y4788900D02*
D03*
X9105600Y4788900D02*
D03*
X9105600Y4738900D02*
D03*
X9105600Y4688900D02*
D03*
D26*
X7658100Y4846400D02*
D03*
X8449400Y4846400D02*
D03*
X9245600Y4846400D02*
D03*
D27*
X7749300Y4916400D02*
D03*
X7566900Y4916400D02*
D03*
X8358200Y4916400D02*
D03*
X8540600Y4916400D02*
D03*
X9336800Y4916400D02*
D03*
X9154400Y4916400D02*
D03*
D28*
X7658100Y5031400D02*
D03*
X8449400Y5031400D02*
D03*
X9245600Y5031400D02*
D03*
D29*
X7583100Y4636400D02*
D03*
X7633100Y4636400D02*
D03*
X7683100Y4636400D02*
D03*
X7733100Y4636400D02*
D03*
X8524400Y4636400D02*
D03*
X8474400Y4636400D02*
D03*
X8424400Y4636400D02*
D03*
X8374400Y4636400D02*
D03*
X9170600Y4636400D02*
D03*
X9220600Y4636400D02*
D03*
X9270600Y4636400D02*
D03*
X9320600Y4636400D02*
D03*
D30*
X4686300Y2383100D02*
D03*
X4813300Y2383100D02*
D03*
X4940300Y2383100D02*
D03*
X5067300Y2383100D02*
D03*
X5194300Y2383100D02*
D03*
X5321300Y2383100D02*
D03*
X5448300Y2383100D02*
D03*
X5575300Y2383100D02*
D03*
X5575300Y2925500D02*
D03*
X5448300Y2925500D02*
D03*
X5321300Y2925500D02*
D03*
X5194300Y2925500D02*
D03*
X5067300Y2925500D02*
D03*
X4940300Y2925500D02*
D03*
X4813300Y2925500D02*
D03*
X4686300Y2925500D02*
D03*
X6096000Y2383100D02*
D03*
X6223000Y2383100D02*
D03*
X6350000Y2383100D02*
D03*
X6477000Y2383100D02*
D03*
X6604000Y2383100D02*
D03*
X6731000Y2383100D02*
D03*
X6858000Y2383100D02*
D03*
X6985000Y2383100D02*
D03*
X6985000Y2925500D02*
D03*
X6858000Y2925500D02*
D03*
X6731000Y2925500D02*
D03*
X6604000Y2925500D02*
D03*
X6477000Y2925500D02*
D03*
X6350000Y2925500D02*
D03*
X6223000Y2925500D02*
D03*
X6096000Y2925500D02*
D03*
X3289300Y2383100D02*
D03*
X3416300Y2383100D02*
D03*
X3543300Y2383100D02*
D03*
X3670300Y2383100D02*
D03*
X3797300Y2383100D02*
D03*
X3924300Y2383100D02*
D03*
X4051300Y2383100D02*
D03*
X4178300Y2383100D02*
D03*
X4178300Y2925500D02*
D03*
X4051300Y2925500D02*
D03*
X3924300Y2925500D02*
D03*
X3797300Y2925500D02*
D03*
X3670300Y2925500D02*
D03*
X3543300Y2925500D02*
D03*
X3416300Y2925500D02*
D03*
X3289300Y2925500D02*
D03*
D31*
X1883196Y3247096D02*
D03*
X2003404Y3367304D02*
D03*
D32*
X1783689Y3350789D02*
D03*
X1925111Y3492211D02*
D03*
D33*
X1067500Y990000D02*
D03*
X1367500Y992500D02*
D03*
X215100Y3021000D02*
D03*
X215100Y3261000D02*
D03*
D34*
X1447800Y3442900D02*
D03*
X1447800Y3592900D02*
D03*
D35*
X460100Y2821000D02*
D03*
X460100Y3461000D02*
D03*
D36*
X482600Y3011000D02*
D03*
X482600Y3076000D02*
D03*
X482600Y3141000D02*
D03*
X482600Y3206000D02*
D03*
X482600Y3271000D02*
D03*
D37*
X768600Y3050000D02*
D03*
X863600Y3050000D02*
D03*
X958600Y3050000D02*
D03*
X958600Y3300000D02*
D03*
X768600Y3300000D02*
D03*
D38*
X814800Y3790700D02*
D03*
X814800Y3695700D02*
D03*
X814800Y3600700D02*
D03*
X1064800Y3600700D02*
D03*
X1064800Y3790700D02*
D03*
%TF.MD5,ccf63a7d45634ec06f4185fc44b7f93e*%
M02*
