%TF.GenerationSoftware,Altium Limited,Altium Designer,22.9.1 (49)*%
G04 Layer_Physical_Order=1*
G04 Layer_Color=255*
%FSLAX45Y45*%
%MOMM*%
%TF.SameCoordinates,925A93EA-3B44-44BF-AA41-ED200E7300F1*%
%TF.FilePolarity,Positive*%
%TF.FileFunction,Copper,L1,Top,Signal*%
%TF.Part,Single*%
G01*
G75*
%TA.AperFunction,SMDPad,CuDef*%
G04:AMPARAMS|DCode=10|XSize=1mm|YSize=1.1mm|CornerRadius=0mm|HoleSize=0mm|Usage=FLASHONLY|Rotation=315.000|XOffset=0mm|YOffset=0mm|HoleType=Round|Shape=Rectangle|*
%AMROTATEDRECTD10*
4,1,4,-0.74246,-0.03535,0.03535,0.74246,0.74246,0.03535,-0.03535,-0.74246,-0.74246,-0.03535,0.0*
%
%ADD10ROTATEDRECTD10*%

%ADD11R,1.00000X1.40000*%
%ADD12R,1.00000X1.10000*%
%ADD13R,0.30000X0.47500*%
%ADD14R,1.65000X5.60000*%
%ADD15R,1.10000X1.00000*%
%ADD16R,1.10000X1.80000*%
%ADD17R,4.00000X2.50000*%
%ADD18R,2.00000X1.00000*%
%ADD19R,2.00000X1.00000*%
%ADD20R,1.40000X1.00000*%
%ADD21R,1.90000X1.90000*%
%ADD22R,2.79000X0.74000*%
G04:AMPARAMS|DCode=23|XSize=1.475mm|YSize=0.6mm|CornerRadius=0mm|HoleSize=0mm|Usage=FLASHONLY|Rotation=225.000|XOffset=0mm|YOffset=0mm|HoleType=Round|Shape=Rectangle|*
%AMROTATEDRECTD23*
4,1,4,0.30936,0.73362,0.73362,0.30936,-0.30936,-0.73362,-0.73362,-0.30936,0.30936,0.73362,0.0*
%
%ADD23ROTATEDRECTD23*%

G04:AMPARAMS|DCode=24|XSize=1.475mm|YSize=0.6mm|CornerRadius=0mm|HoleSize=0mm|Usage=FLASHONLY|Rotation=135.000|XOffset=0mm|YOffset=0mm|HoleType=Round|Shape=Rectangle|*
%AMROTATEDRECTD24*
4,1,4,0.73362,-0.30936,0.30936,-0.73362,-0.73362,0.30936,-0.30936,0.73362,0.73362,-0.30936,0.0*
%
%ADD24ROTATEDRECTD24*%

%ADD25R,0.60000X0.25000*%
%ADD26R,3.50000X0.50000*%
%ADD27R,1.67500X0.50000*%
%ADD28R,3.50000X1.40000*%
%ADD29R,0.25000X0.60000*%
%ADD30R,0.65000X1.52500*%
G04:AMPARAMS|DCode=31|XSize=1mm|YSize=1.1mm|CornerRadius=0mm|HoleSize=0mm|Usage=FLASHONLY|Rotation=225.000|XOffset=0mm|YOffset=0mm|HoleType=Round|Shape=Rectangle|*
%AMROTATEDRECTD31*
4,1,4,-0.03535,0.74246,0.74246,-0.03535,0.03535,-0.74246,-0.74246,0.03535,-0.03535,0.74246,0.0*
%
%ADD31ROTATEDRECTD31*%

G04:AMPARAMS|DCode=32|XSize=1mm|YSize=1.4mm|CornerRadius=0mm|HoleSize=0mm|Usage=FLASHONLY|Rotation=225.000|XOffset=0mm|YOffset=0mm|HoleType=Round|Shape=Rectangle|*
%AMROTATEDRECTD32*
4,1,4,-0.14142,0.84853,0.84853,-0.14142,0.14142,-0.84853,-0.84853,0.14142,-0.14142,0.84853,0.0*
%
%ADD32ROTATEDRECTD32*%

%ADD33R,1.90000X1.90000*%
%ADD34R,0.80000X0.80000*%
%TA.AperFunction,ConnectorPad*%
%ADD35R,1.40000X1.60000*%
%ADD36R,1.35000X0.40000*%
%TA.AperFunction,SMDPad,CuDef*%
%ADD37R,0.60000X1.20000*%
%ADD38R,1.25000X0.60000*%
%TA.AperFunction,Conductor*%
%ADD39C,0.25400*%
%ADD40C,0.50000*%
%ADD41C,0.26000*%
%ADD42C,0.45000*%
%ADD43C,0.40000*%
%TA.AperFunction,ComponentPad*%
%ADD44C,0.75000*%
%ADD45C,1.30000*%
%ADD46C,1.95000*%
%TA.AperFunction,ViaPad*%
%ADD47C,0.45000*%
G36*
X611083Y5267937D02*
X614742Y5264928D01*
X618784Y5262273D01*
X623209Y5259972D01*
X628017Y5258025D01*
X633207Y5256432D01*
X638781Y5255193D01*
X644738Y5254308D01*
X651077Y5253777D01*
X657800Y5253600D01*
X657800Y5203600D01*
X651077Y5203423D01*
X644738Y5202892D01*
X638781Y5202007D01*
X633207Y5200768D01*
X628017Y5199175D01*
X623209Y5197228D01*
X618784Y5194927D01*
X614742Y5192272D01*
X611083Y5189263D01*
X607807Y5185900D01*
X607807Y5271300D01*
X611083Y5267937D01*
X611083Y5267937D02*
G37*
G36*
X2274880Y5219053D02*
X2276101Y5202989D01*
X2277238Y5195821D01*
X2278726Y5189231D01*
X2280565Y5183217D01*
X2282756Y5177780D01*
X2285297Y5172919D01*
X2288190Y5168635D01*
X2291434Y5164927D01*
X2273473Y5146967D01*
X2269766Y5150210D01*
X2265481Y5153103D01*
X2260621Y5155644D01*
X2255183Y5157835D01*
X2249169Y5159674D01*
X2242579Y5161162D01*
X2235411Y5162299D01*
X2227668Y5163085D01*
X2210450Y5163603D01*
X2274797Y5227950D01*
X2274880Y5219053D01*
X2274880Y5219053D02*
G37*
G36*
X2147880Y4965053D02*
X2149101Y4948989D01*
X2150238Y4941821D01*
X2151726Y4935231D01*
X2153565Y4929217D01*
X2155756Y4923780D01*
X2158297Y4918919D01*
X2161190Y4914635D01*
X2164434Y4910927D01*
X2146473Y4892967D01*
X2142766Y4896210D01*
X2138481Y4899103D01*
X2133621Y4901644D01*
X2128183Y4903835D01*
X2122169Y4905674D01*
X2115579Y4907162D01*
X2108411Y4908299D01*
X2100668Y4909085D01*
X2083450Y4909603D01*
X2147797Y4973950D01*
X2147880Y4965053D01*
X2147880Y4965053D02*
G37*
G36*
X9535000Y4957500D02*
X9470000Y4892500D01*
X9420000Y4892500D01*
X9420000Y4940000D01*
X9445000Y4965000D01*
X9445000Y5142500D01*
X9344233Y5243267D01*
X9349093Y5255000D01*
X9535000Y5255000D01*
X9535000Y4957500D01*
X9535000Y4957500D02*
G37*
G36*
X9140907Y5255000D02*
X9145767Y5243266D01*
X9045000Y5142499D01*
X9045000Y4967500D01*
X9060440Y4952060D01*
X9060440Y4951240D01*
X9061260Y4951240D01*
X9075000Y4937500D01*
X9075000Y4892500D01*
X9020000Y4892500D01*
X8957500Y4955000D01*
X8957500Y5255000D01*
X9140907Y5255000D01*
X9140907Y5255000D02*
G37*
G36*
X8742500Y5245790D02*
X8742500Y4962500D01*
X8672500Y4892500D01*
X8622500Y4892500D01*
X8622500Y4940000D01*
X8633740Y4951240D01*
X8634560Y4951240D01*
X8634560Y4952060D01*
X8647500Y4965000D01*
X8647500Y5137500D01*
X8551077Y5233923D01*
X8555646Y5245773D01*
X8733301Y5254545D01*
X8742500Y5245790D01*
X8742500Y5245790D02*
G37*
G36*
X8343267Y5243267D02*
X8250000Y5150000D01*
X8250000Y4965000D01*
X8275000Y4940000D01*
X8275000Y4892500D01*
X8225000Y4892500D01*
X8152500Y4965000D01*
X8152500Y5255000D01*
X8338406Y5255000D01*
X8343267Y5243267D01*
X8343267Y5243267D02*
G37*
G36*
X7952500Y4962500D02*
X7882500Y4892500D01*
X7832500Y4892500D01*
X7832500Y4940000D01*
X7857500Y4965000D01*
X7857500Y5147500D01*
X7761733Y5243267D01*
X7766594Y5255000D01*
X7952500Y5255000D01*
X7952500Y4962500D01*
X7952500Y4962500D02*
G37*
G36*
X7558267Y5243267D02*
X7460000Y5145000D01*
X7460000Y4965000D01*
X7472940Y4952060D01*
X7472940Y4951240D01*
X7473760Y4951240D01*
X7485000Y4940000D01*
X7485000Y4892500D01*
X7435000Y4892500D01*
X7367500Y4960000D01*
X7367500Y5255000D01*
X7553406Y5255000D01*
X7558267Y5243267D01*
X7558267Y5243267D02*
G37*
G36*
X1291666Y4608700D02*
X1295000Y4608700D01*
X1295050Y4606924D01*
X1324883Y4591264D01*
X1320380Y4586432D01*
X1316692Y4581758D01*
X1313820Y4577243D01*
X1311763Y4572886D01*
X1310522Y4568688D01*
X1310096Y4564647D01*
X1310486Y4560765D01*
X1311691Y4557042D01*
X1313711Y4553476D01*
X1316547Y4550069D01*
X1304891Y4551119D01*
X1224500Y4551119D01*
X1228395Y4555312D01*
X1231880Y4559853D01*
X1234955Y4564741D01*
X1237620Y4569977D01*
X1239875Y4575562D01*
X1241720Y4581494D01*
X1243155Y4587773D01*
X1244180Y4594401D01*
X1244795Y4601377D01*
X1245000Y4608700D01*
X1279057Y4608700D01*
X1283150Y4613170D01*
X1291666Y4608700D01*
X1291666Y4608700D02*
G37*
G36*
X1589080Y4495153D02*
X1590301Y4479089D01*
X1591438Y4471921D01*
X1592926Y4465331D01*
X1594765Y4459317D01*
X1596956Y4453879D01*
X1599497Y4449019D01*
X1602390Y4444735D01*
X1605633Y4441027D01*
X1587673Y4423067D01*
X1583965Y4426310D01*
X1579681Y4429203D01*
X1574820Y4431744D01*
X1569383Y4433934D01*
X1563369Y4435774D01*
X1556778Y4437262D01*
X1549611Y4438399D01*
X1541867Y4439185D01*
X1524650Y4439703D01*
X1588997Y4504050D01*
X1589080Y4495153D01*
X1589080Y4495153D02*
G37*
G36*
X1311605Y4454138D02*
X1308120Y4449748D01*
X1305045Y4445109D01*
X1302380Y4440223D01*
X1300125Y4435089D01*
X1298280Y4429707D01*
X1296845Y4424077D01*
X1295820Y4418199D01*
X1295205Y4412073D01*
X1295000Y4405700D01*
X1245000Y4405700D01*
X1244795Y4412073D01*
X1244180Y4418199D01*
X1243155Y4424077D01*
X1241720Y4429707D01*
X1239875Y4435089D01*
X1237620Y4440223D01*
X1234955Y4445109D01*
X1231880Y4449748D01*
X1228395Y4454138D01*
X1224500Y4458281D01*
X1315500Y4458281D01*
X1311605Y4454138D01*
X1311605Y4454138D02*
G37*
G36*
X1462080Y4241153D02*
X1463301Y4225089D01*
X1464438Y4217921D01*
X1465926Y4211331D01*
X1467765Y4205317D01*
X1469956Y4199880D01*
X1472497Y4195019D01*
X1475390Y4190735D01*
X1478634Y4187027D01*
X1460673Y4169067D01*
X1456966Y4172310D01*
X1452681Y4175203D01*
X1447821Y4177744D01*
X1442383Y4179935D01*
X1436369Y4181774D01*
X1429779Y4183262D01*
X1422611Y4184399D01*
X1414868Y4185185D01*
X1397650Y4185703D01*
X1461997Y4250050D01*
X1462080Y4241153D01*
X1462080Y4241153D02*
G37*
G36*
X9577500Y3737500D02*
X9285000Y3737500D01*
X9045000Y3497500D01*
X9045000Y3037500D01*
X8990000Y3037500D01*
X8960210Y3007710D01*
X8959840Y3007710D01*
X8959840Y3007340D01*
X8947500Y2995000D01*
X8950000Y2992500D01*
X8950000Y2952500D01*
X8920000Y2952500D01*
X8920000Y3145000D01*
X8920000Y3497500D01*
X8920000Y3555000D01*
X9235000Y3870000D01*
X9577500Y3870000D01*
X9577500Y3737500D01*
X9577500Y3737500D02*
G37*
G36*
X8850000Y3147500D02*
X8850000Y3040000D01*
X8900000Y2997500D01*
X8900000Y2950000D01*
X8812500Y2950000D01*
X8735000Y3027500D01*
X8735000Y3162500D01*
X8735000Y3495000D01*
X8736036Y3497500D01*
X8850000Y3497500D01*
X8850000Y3147500D01*
X8850000Y3147500D02*
G37*
G36*
X8900000Y2150000D02*
X8547454Y2150000D01*
X8543863Y2162181D01*
X8546378Y2163807D01*
X8645000Y2227500D01*
X8550644Y2173583D01*
X8534569Y2164397D01*
X8533022Y2164591D01*
X8531500Y2164929D01*
X8522500Y2172820D01*
X8522500Y2712500D01*
X8860000Y2840000D01*
X8900000Y2840000D01*
X8900000Y2150000D01*
X8900000Y2150000D02*
G37*
G36*
X8575000Y1944995D02*
X8575000Y1727500D01*
X8337500Y1727500D01*
X8337500Y2072500D01*
X8447501Y2072500D01*
X8575000Y1944995D01*
X8575000Y1944995D02*
G37*
G36*
X8282500Y1727500D02*
X8097500Y1727500D01*
X8097500Y2690000D01*
X8097500Y2720000D01*
X8282500Y2720000D01*
X8282500Y1727500D01*
X8282500Y1727500D02*
G37*
G36*
X1873671Y1302156D02*
X1869806Y1306259D01*
X1865660Y1309930D01*
X1861231Y1313169D01*
X1856521Y1315976D01*
X1851528Y1318351D01*
X1846254Y1320295D01*
X1840697Y1321806D01*
X1834858Y1322886D01*
X1828738Y1323534D01*
X1822335Y1323750D01*
X1825803Y1373750D01*
X1832147Y1373942D01*
X1838274Y1374518D01*
X1844185Y1375480D01*
X1849878Y1376825D01*
X1855354Y1378555D01*
X1860614Y1380669D01*
X1865656Y1383168D01*
X1870481Y1386051D01*
X1875089Y1389319D01*
X1879480Y1392971D01*
X1873671Y1302156D01*
X1873671Y1302156D02*
G37*
G36*
X9224581Y1300700D02*
X9218230Y1306932D01*
X9206008Y1317428D01*
X9200136Y1321692D01*
X9194424Y1325300D01*
X9188870Y1328252D01*
X9183477Y1330548D01*
X9178243Y1332188D01*
X9173168Y1333172D01*
X9168253Y1333500D01*
X9168253Y1358900D01*
X9173168Y1359228D01*
X9178243Y1360212D01*
X9183477Y1361852D01*
X9188870Y1364148D01*
X9194424Y1367100D01*
X9200136Y1370708D01*
X9206008Y1374972D01*
X9212039Y1379892D01*
X9224581Y1391700D01*
X9224581Y1300700D01*
X9224581Y1300700D02*
G37*
G36*
X2116934Y1295990D02*
X2121219Y1293097D01*
X2126079Y1290556D01*
X2131517Y1288365D01*
X2137531Y1286526D01*
X2144121Y1285038D01*
X2151289Y1283901D01*
X2159032Y1283115D01*
X2176250Y1282597D01*
X2111903Y1218250D01*
X2111819Y1227147D01*
X2110599Y1243211D01*
X2109462Y1250379D01*
X2107974Y1256969D01*
X2106134Y1262983D01*
X2103944Y1268421D01*
X2101403Y1273281D01*
X2098510Y1277566D01*
X2095266Y1281273D01*
X2113227Y1299234D01*
X2116934Y1295990D01*
X2116934Y1295990D02*
G37*
G36*
X7788634Y1183290D02*
X7792919Y1180397D01*
X7797779Y1177856D01*
X7803217Y1175665D01*
X7809231Y1173826D01*
X7815821Y1172338D01*
X7822989Y1171201D01*
X7830732Y1170415D01*
X7847950Y1169897D01*
X7783603Y1105550D01*
X7783520Y1114447D01*
X7782299Y1130511D01*
X7781162Y1137679D01*
X7779674Y1144269D01*
X7777835Y1150283D01*
X7775644Y1155721D01*
X7773103Y1160581D01*
X7770210Y1164866D01*
X7766966Y1168573D01*
X7784927Y1186534D01*
X7788634Y1183290D01*
X7788634Y1183290D02*
G37*
G36*
X2130481Y918100D02*
X2124130Y924332D01*
X2111908Y934828D01*
X2106036Y939092D01*
X2100323Y942700D01*
X2094770Y945652D01*
X2089377Y947948D01*
X2084143Y949588D01*
X2079068Y950572D01*
X2074153Y950900D01*
X2074153Y976300D01*
X2079068Y976628D01*
X2084143Y977612D01*
X2089377Y979252D01*
X2094770Y981548D01*
X2100323Y984500D01*
X2106036Y988108D01*
X2111908Y992372D01*
X2117939Y997292D01*
X2130481Y1009100D01*
X2130481Y918100D01*
X2130481Y918100D02*
G37*
G36*
X8639534Y903890D02*
X8643819Y900997D01*
X8648679Y898456D01*
X8654117Y896265D01*
X8660131Y894426D01*
X8666721Y892938D01*
X8673889Y891801D01*
X8681632Y891015D01*
X8698850Y890497D01*
X8634503Y826150D01*
X8634420Y835047D01*
X8633199Y851111D01*
X8632062Y858279D01*
X8630574Y864869D01*
X8628735Y870883D01*
X8626544Y876321D01*
X8624003Y881181D01*
X8621110Y885466D01*
X8617866Y889173D01*
X8635827Y907134D01*
X8639534Y903890D01*
X8639534Y903890D02*
G37*
D10*
X2232396Y3512604D02*
D03*
X2352604Y3392396D02*
D03*
X2132396Y3415104D02*
D03*
X2252604Y3294896D02*
D03*
X2040104Y1947396D02*
D03*
X1919896Y2067604D02*
D03*
D11*
X8985601Y3252700D02*
D03*
X8785600Y3252700D02*
D03*
X8987500Y3427500D02*
D03*
X8787500Y3427500D02*
D03*
D12*
X8970601Y3092201D02*
D03*
X8800600Y3092201D02*
D03*
X9020000Y2552500D02*
D03*
X8850000Y2552500D02*
D03*
X9205000Y2810000D02*
D03*
X9375000Y2810000D02*
D03*
X9375000Y2960000D02*
D03*
X9205000Y2960000D02*
D03*
X8387500Y2017500D02*
D03*
X8217500Y2017500D02*
D03*
X9673500Y4191000D02*
D03*
X9503500Y4191000D02*
D03*
X9673500Y4406900D02*
D03*
X9503500Y4406900D02*
D03*
X8873400Y4191000D02*
D03*
X8703400Y4191000D02*
D03*
X8873400Y4406900D02*
D03*
X8703400Y4406900D02*
D03*
X8086000Y4191000D02*
D03*
X7916000Y4191000D02*
D03*
X8086000Y4406900D02*
D03*
X7916000Y4406900D02*
D03*
X4347300Y2921000D02*
D03*
X4517300Y2921000D02*
D03*
X4347300Y2374900D02*
D03*
X4517300Y2374900D02*
D03*
X5755000Y2920000D02*
D03*
X5925000Y2920000D02*
D03*
X5757000Y2387600D02*
D03*
X5927000Y2387600D02*
D03*
X2963000Y2387600D02*
D03*
X3133000Y2387600D02*
D03*
X435700Y3810000D02*
D03*
X605700Y3810000D02*
D03*
D13*
X9035000Y2973800D02*
D03*
X8985000Y2973800D02*
D03*
X8935000Y2973800D02*
D03*
X8885000Y2973800D02*
D03*
X8885000Y2806200D02*
D03*
X8935000Y2806200D02*
D03*
X8985000Y2806200D02*
D03*
X9035000Y2806200D02*
D03*
D14*
X8190000Y2430000D02*
D03*
X8605000Y2430000D02*
D03*
D15*
X9210000Y2490000D02*
D03*
X9210000Y2660000D02*
D03*
X1070000Y2082500D02*
D03*
X1070000Y1912500D02*
D03*
X8496300Y4194900D02*
D03*
X8496300Y4364900D02*
D03*
X9093200Y4194900D02*
D03*
X9093200Y4364900D02*
D03*
X9296400Y4194900D02*
D03*
X9296400Y4364900D02*
D03*
X7518399Y4194900D02*
D03*
X7518399Y4364900D02*
D03*
X7708900Y4194900D02*
D03*
X7708900Y4364900D02*
D03*
X8305800Y4194900D02*
D03*
X8305800Y4364900D02*
D03*
X3111500Y3094900D02*
D03*
X3111500Y2924900D02*
D03*
X1597500Y1072500D02*
D03*
X1597500Y902500D02*
D03*
X1257300Y3958500D02*
D03*
X1257300Y3788500D02*
D03*
X1270000Y3615600D02*
D03*
X1270000Y3445600D02*
D03*
D16*
X8212500Y1827500D02*
D03*
X8512500Y1827500D02*
D03*
D17*
X9520000Y3300000D02*
D03*
X9520000Y2455000D02*
D03*
D18*
X207500Y1600000D02*
D03*
X807500Y1600000D02*
D03*
D19*
X207500Y1200000D02*
D03*
X807500Y1200000D02*
D03*
D20*
X1065000Y1200000D02*
D03*
X1065000Y1400000D02*
D03*
D21*
X9440000Y5337500D02*
D03*
X8647500Y5327500D02*
D03*
X8247500Y5337500D02*
D03*
X7463700Y5337500D02*
D03*
X7857500Y5337500D02*
D03*
X9051200Y5337500D02*
D03*
D22*
X737000Y1914100D02*
D03*
X330000Y1914100D02*
D03*
X737000Y2041100D02*
D03*
X330000Y2041100D02*
D03*
X737000Y2168100D02*
D03*
X330000Y2168100D02*
D03*
X737000Y2295100D02*
D03*
X330000Y2295100D02*
D03*
X737000Y2422100D02*
D03*
X330000Y2422100D02*
D03*
D23*
X1803318Y2156638D02*
D03*
X1746750Y2213207D02*
D03*
X1690181Y2269775D02*
D03*
X1633612Y2326344D02*
D03*
X1577044Y2382912D02*
D03*
X1520475Y2439481D02*
D03*
X1463907Y2496050D02*
D03*
X1407338Y2552618D02*
D03*
X2006682Y3151962D02*
D03*
X2063250Y3095393D02*
D03*
X2119819Y3038825D02*
D03*
X2176388Y2982256D02*
D03*
X2232956Y2925688D02*
D03*
X2289525Y2869119D02*
D03*
X2346093Y2812550D02*
D03*
X2402662Y2755982D02*
D03*
D24*
X1407338Y2755982D02*
D03*
X1463907Y2812550D02*
D03*
X1520475Y2869119D02*
D03*
X1577044Y2925688D02*
D03*
X1633612Y2982256D02*
D03*
X1690181Y3038825D02*
D03*
X1746750Y3095393D02*
D03*
X1803318Y3151962D02*
D03*
X2402662Y2552618D02*
D03*
X2346093Y2496050D02*
D03*
X2289525Y2439481D02*
D03*
X2232956Y2382912D02*
D03*
X2176388Y2326344D02*
D03*
X2119819Y2269775D02*
D03*
X2063250Y2213207D02*
D03*
X2006682Y2156638D02*
D03*
D25*
X7798100Y4688900D02*
D03*
X7798100Y4738900D02*
D03*
X7798100Y4788900D02*
D03*
X7518100Y4788900D02*
D03*
X7518100Y4738900D02*
D03*
X7518100Y4688900D02*
D03*
X8309400Y4688900D02*
D03*
X8309400Y4738900D02*
D03*
X8309400Y4788900D02*
D03*
X8589400Y4788900D02*
D03*
X8589400Y4738900D02*
D03*
X8589400Y4688900D02*
D03*
X9385600Y4688900D02*
D03*
X9385600Y4738900D02*
D03*
X9385600Y4788900D02*
D03*
X9105600Y4788900D02*
D03*
X9105600Y4738900D02*
D03*
X9105600Y4688900D02*
D03*
D26*
X7658100Y4846400D02*
D03*
X8449400Y4846400D02*
D03*
X9245600Y4846400D02*
D03*
D27*
X7749300Y4916400D02*
D03*
X7566900Y4916400D02*
D03*
X8358200Y4916400D02*
D03*
X8540600Y4916400D02*
D03*
X9336800Y4916400D02*
D03*
X9154400Y4916400D02*
D03*
D28*
X7658100Y5031400D02*
D03*
X8449400Y5031400D02*
D03*
X9245600Y5031400D02*
D03*
D29*
X7583100Y4636400D02*
D03*
X7633100Y4636400D02*
D03*
X7683100Y4636400D02*
D03*
X7733100Y4636400D02*
D03*
X8524400Y4636400D02*
D03*
X8474400Y4636400D02*
D03*
X8424400Y4636400D02*
D03*
X8374400Y4636400D02*
D03*
X9170600Y4636400D02*
D03*
X9220600Y4636400D02*
D03*
X9270600Y4636400D02*
D03*
X9320600Y4636400D02*
D03*
D30*
X4686300Y2383100D02*
D03*
X4813300Y2383100D02*
D03*
X4940300Y2383100D02*
D03*
X5067300Y2383100D02*
D03*
X5194300Y2383100D02*
D03*
X5321300Y2383100D02*
D03*
X5448300Y2383100D02*
D03*
X5575300Y2383100D02*
D03*
X5575300Y2925500D02*
D03*
X5448300Y2925500D02*
D03*
X5321300Y2925500D02*
D03*
X5194300Y2925500D02*
D03*
X5067300Y2925500D02*
D03*
X4940300Y2925500D02*
D03*
X4813300Y2925500D02*
D03*
X4686300Y2925500D02*
D03*
X6096000Y2383100D02*
D03*
X6223000Y2383100D02*
D03*
X6350000Y2383100D02*
D03*
X6477000Y2383100D02*
D03*
X6604000Y2383100D02*
D03*
X6731000Y2383100D02*
D03*
X6858000Y2383100D02*
D03*
X6985000Y2383100D02*
D03*
X6985000Y2925500D02*
D03*
X6858000Y2925500D02*
D03*
X6731000Y2925500D02*
D03*
X6604000Y2925500D02*
D03*
X6477000Y2925500D02*
D03*
X6350000Y2925500D02*
D03*
X6223000Y2925500D02*
D03*
X6096000Y2925500D02*
D03*
X3289300Y2383100D02*
D03*
X3416300Y2383100D02*
D03*
X3543300Y2383100D02*
D03*
X3670300Y2383100D02*
D03*
X3797300Y2383100D02*
D03*
X3924300Y2383100D02*
D03*
X4051300Y2383100D02*
D03*
X4178300Y2383100D02*
D03*
X4178300Y2925500D02*
D03*
X4051300Y2925500D02*
D03*
X3924300Y2925500D02*
D03*
X3797300Y2925500D02*
D03*
X3670300Y2925500D02*
D03*
X3543300Y2925500D02*
D03*
X3416300Y2925500D02*
D03*
X3289300Y2925500D02*
D03*
D31*
X1883196Y3247096D02*
D03*
X2003404Y3367304D02*
D03*
D32*
X1783689Y3350789D02*
D03*
X1925111Y3492211D02*
D03*
D33*
X1067500Y990000D02*
D03*
X1367500Y992500D02*
D03*
X215100Y3021000D02*
D03*
X215100Y3261000D02*
D03*
D34*
X1447800Y3442900D02*
D03*
X1447800Y3592900D02*
D03*
D35*
X460100Y2821000D02*
D03*
X460100Y3461000D02*
D03*
D36*
X482600Y3011000D02*
D03*
X482600Y3076000D02*
D03*
X482600Y3141000D02*
D03*
X482600Y3206000D02*
D03*
X482600Y3271000D02*
D03*
D37*
X768600Y3050000D02*
D03*
X863600Y3050000D02*
D03*
X958600Y3050000D02*
D03*
X958600Y3300000D02*
D03*
X768600Y3300000D02*
D03*
D38*
X814800Y3790700D02*
D03*
X814800Y3695700D02*
D03*
X814800Y3600700D02*
D03*
X1064800Y3600700D02*
D03*
X1064800Y3790700D02*
D03*
D39*
X1587500Y3141506D02*
X1587500Y4060200D01*
X1638300Y3203843D02*
X1638300Y4390400D01*
X1638300Y3203843D02*
X1746750Y3095393D01*
X1587500Y3141506D02*
X1690181Y3038825D01*
X1397000Y4250700D02*
X1587500Y4060200D01*
X1524000Y4504700D02*
X1638300Y4390400D01*
X2062500Y2980000D02*
X2062500Y2980753D01*
X2119819Y3038072D01*
X2119819Y3038825D01*
X2352604Y3384747D02*
X2352604Y3392396D01*
X1883196Y3231840D02*
X1883196Y3247096D01*
X1783689Y3350789D02*
X1783689Y3372511D01*
X2465000Y3157731D02*
X2465000Y3507500D01*
X2232956Y2925688D02*
X2465000Y3157731D01*
X2280000Y3692500D02*
X2465000Y3507500D01*
X2390000Y3717500D02*
X2535000Y3572500D01*
X2535000Y3114594D02*
X2535000Y3572500D01*
X2390000Y3717500D02*
X2390000Y5048400D01*
X2280000Y3692500D02*
X2280000Y4777400D01*
X2209800Y5228600D02*
X2390000Y5048400D01*
X2082800Y4974600D02*
X2280000Y4777400D01*
X2289525Y2869119D02*
X2535000Y3114594D01*
X8884400Y2974400D02*
X8885000Y2973800D01*
X9205000Y2810000D02*
X9205000Y2960000D01*
X8885000Y2797450D02*
X8885000Y2806200D01*
X8935000Y2647500D02*
X8935000Y2806200D01*
X8935000Y2647500D02*
X9025000Y2557500D01*
X9025000Y2552500D02*
X9025000Y2557500D01*
X9035000Y2806200D02*
X9201200Y2806200D01*
X8987300Y2770200D02*
X8987300Y2803900D01*
X8985000Y2806200D02*
X8987300Y2803900D01*
X8987300Y2770200D02*
X9097500Y2660000D01*
X9210000Y2660000D01*
X9380000Y2660000D02*
X9380000Y2805000D01*
X9375000Y2810000D02*
X9380000Y2805000D01*
X8194420Y3806920D02*
X8194420Y4591020D01*
X7867500Y3480000D02*
X8194420Y3806920D01*
X7617500Y3490000D02*
X7620000Y3490000D01*
X8158860Y4028860D01*
X8158860Y4613189D01*
X8462500Y3477500D02*
X8462500Y3482500D01*
X9000000Y4020000D01*
X9000000Y4642500D01*
X8158860Y4613189D02*
X8270131Y4724460D01*
X8277860Y4724460D01*
X8292300Y4738900D01*
X8309400Y4738900D01*
X8194420Y4591020D02*
X8292300Y4688900D01*
X7319100Y3420000D02*
X8000000Y4100900D01*
X8000000Y4750000D01*
X8292300Y4688900D02*
X8309400Y4688900D01*
X9000000Y4642500D02*
X9046400Y4688900D01*
X8957500Y4087500D02*
X8957500Y4664900D01*
X9031500Y4738900D01*
X8360000Y3490000D02*
X8957500Y4087500D01*
X9046400Y4688900D02*
X9105600Y4688900D01*
X7427500Y4650000D02*
X7466400Y4688900D01*
X7427500Y3635000D02*
X7427500Y4650000D01*
X7360000Y3567500D02*
X7427500Y3635000D01*
X7215700Y3520000D02*
X7382500Y3686800D01*
X7382500Y4673748D01*
X7447652Y4738900D01*
X7466400Y4688900D02*
X7518100Y4688900D01*
X1549400Y1845100D02*
X1549400Y2128994D01*
X1549400Y1845100D02*
X2176900Y1217600D01*
X807500Y1600000D02*
X970000Y1600000D01*
X1067500Y1697500D02*
X1067500Y1910000D01*
X970000Y1600000D02*
X1067500Y1697500D01*
X207500Y1600000D02*
X807500Y1600000D01*
X1447500Y1072500D02*
X1597500Y1072500D01*
X1367500Y992500D02*
X1447500Y1072500D01*
X1663600Y963600D02*
X2176900Y963600D01*
X1602500Y902500D02*
X1663600Y963600D01*
X1597500Y902500D02*
X1602500Y902500D01*
X1070539Y1911961D02*
X1074461Y1911961D01*
X1112300Y1949800D01*
X1112300Y1953723D02*
X1419177Y2260600D01*
X1068400Y1914100D02*
X1070539Y1911961D01*
X1419177Y2260600D02*
X1498600Y2260600D01*
X1112300Y1949800D02*
X1112300Y1953723D01*
X737000Y1914100D02*
X1068400Y1914100D01*
X1067500Y1910000D02*
X1070000Y1912500D01*
X839500Y2422100D02*
X863800Y2446400D01*
X863800Y2451300D01*
X1306378Y2893878D02*
X1382579Y2893878D01*
X737000Y2422100D02*
X839500Y2422100D01*
X863800Y2451300D02*
X1306378Y2893878D01*
X946457Y2295100D02*
X1407338Y2755982D01*
X737000Y2295100D02*
X946457Y2295100D01*
X1549400Y2128994D02*
X1690181Y2269775D01*
X1715412Y2079756D02*
X1792294Y2156638D01*
X1710108Y2079756D02*
X1715412Y2079756D01*
X1792294Y2156638D02*
X1803318Y2156638D01*
X1862500Y1780000D02*
X2130000Y1780000D01*
X1638300Y2004200D02*
X1638300Y2105528D01*
X1638300Y2004200D02*
X1862500Y1780000D01*
X2130000Y1780000D02*
X2225000Y1875000D01*
X2225000Y1932900D01*
X2349500Y2057400D01*
X3840000Y2175000D02*
X3924300Y2259300D01*
X3924300Y2383100D01*
X1463907Y2496050D02*
X1466228Y2496050D01*
X1692679Y2722500D02*
X1695000Y2722500D01*
X1466228Y2496050D02*
X1692679Y2722500D01*
X1407338Y2552618D02*
X1686820Y2832100D01*
X1689100Y2832100D01*
X1403710Y2552618D02*
X1407338Y2552618D01*
X1638300Y2105528D02*
X1745978Y2213207D01*
X1923900Y2063600D02*
X2006682Y2146382D01*
X1810931Y2064069D02*
X1915632Y2064069D01*
X1916100Y2063600D01*
X1810000Y2065000D02*
X1810931Y2064069D01*
X1916100Y2063600D02*
X1923900Y2063600D01*
X2006682Y2146382D02*
X2006682Y2156638D01*
X558800Y5225853D02*
X558800Y5228600D01*
X8985000Y4780000D02*
X8990304Y4780000D01*
X8999204Y4788900D02*
X9105600Y4788900D01*
X8990304Y4780000D02*
X8999204Y4788900D01*
X9031500Y4738900D02*
X9105600Y4738900D01*
X8226704Y4788900D02*
X8309400Y4788900D01*
X8215000Y4782500D02*
X8220304Y4782500D01*
X8226704Y4788900D01*
X7428700Y4788700D02*
X7517900Y4788700D01*
X7425000Y4785000D02*
X7428700Y4788700D01*
X7517900Y4788700D02*
X7518100Y4788900D01*
X3419400Y2928600D02*
X3419400Y3031900D01*
X3416300Y2925500D02*
X3419400Y2928600D01*
X4177900Y2925900D02*
X4178300Y2925500D01*
X4177900Y2925900D02*
X4177900Y3034600D01*
X4177500Y3035000D02*
X4177900Y3034600D01*
X4345000Y2923300D02*
X4345000Y3010000D01*
X4345000Y2923300D02*
X4347300Y2921000D01*
X5752500Y2922500D02*
X5755000Y2920000D01*
X5752500Y2922500D02*
X5752500Y3007500D01*
X6985000Y2277500D02*
X6985000Y2383100D01*
X6224000Y2271000D02*
X6224000Y2382100D01*
X6223000Y2383100D02*
X6224000Y2382100D01*
X6224000Y2271000D02*
X6225000Y2270000D01*
X5757000Y2387600D02*
X5760000Y2384600D01*
X5760000Y2297500D02*
X5760000Y2384600D01*
X5575300Y2383100D02*
X5576400Y2382000D01*
X5576400Y2273600D02*
X5576400Y2382000D01*
X5576400Y2273600D02*
X5577500Y2272500D01*
X4812900Y2270400D02*
X4812900Y2382700D01*
X4813300Y2383100D01*
X4812500Y2270000D02*
X4812900Y2270400D01*
X4345000Y2372600D02*
X4347300Y2374900D01*
X4345000Y2285000D02*
X4345000Y2372600D01*
X4177900Y2382700D02*
X4178300Y2383100D01*
X4177900Y2277900D02*
X4177900Y2382700D01*
X4177500Y2277500D02*
X4177900Y2277900D01*
X3415000Y2272500D02*
X3415650Y2273150D01*
X3415650Y2382450D02*
X3416300Y2383100D01*
X3415650Y2273150D02*
X3415650Y2382450D01*
X863600Y3050000D02*
X864300Y3049300D01*
X864300Y2983200D02*
X865000Y2982500D01*
X864300Y2983200D02*
X864300Y3049300D01*
X482600Y3011000D02*
X483100Y3010500D01*
X589500Y3010500D02*
X590000Y3010000D01*
X483100Y3010500D02*
X589500Y3010500D01*
X9190000Y4200000D02*
X9291300Y4200000D01*
X9296400Y4194900D01*
X8491400Y4190000D02*
X8496300Y4194900D01*
X8400000Y4190000D02*
X8491400Y4190000D01*
X7610000Y4190000D02*
X7704000Y4190000D01*
X7708900Y4194900D01*
X7710000Y4193800D01*
X7523299Y4190000D02*
X7610000Y4190000D01*
X7518399Y4194900D02*
X7523299Y4190000D01*
X8310700Y4190000D02*
X8400000Y4190000D01*
X8305800Y4194900D02*
X8310700Y4190000D01*
X8496300Y4194900D02*
X8500000Y4191200D01*
X9296400Y4194900D02*
X9300000Y4191300D01*
X9098300Y4200000D02*
X9190000Y4200000D01*
X9093200Y4194900D02*
X9098300Y4200000D01*
X8086000Y4406900D02*
X8086000Y4422500D01*
X8090000Y4426500D01*
X2090000Y3237640D02*
X2090000Y3240000D01*
X2006682Y3151962D02*
X2006682Y3154322D01*
X2090000Y3237640D01*
X2960000Y2300000D02*
X2960000Y2384600D01*
X2963000Y2387600D01*
X6985000Y2925500D02*
X6985000Y3048000D01*
X6223000Y2925500D02*
X6223000Y3048000D01*
X5575300Y2925500D02*
X5575300Y3048000D01*
X4813300Y2925500D02*
X4813300Y3060700D01*
X5927000Y2933700D02*
X5940700Y2920000D01*
X6090500Y2920000D02*
X6096000Y2925500D01*
X5940700Y2920000D02*
X6090500Y2920000D01*
X3111500Y2921000D02*
X3213100Y2921000D01*
X9385600Y4688900D02*
X9387600Y4688900D01*
X9387800Y4688700D01*
X9387800Y4622200D02*
X9390000Y4620000D01*
X9387800Y4622200D02*
X9387800Y4688700D01*
X8589700Y4620300D02*
X8589700Y4688700D01*
X8589700Y4620300D02*
X8590000Y4620000D01*
X8589400Y4688900D02*
X8589500Y4688900D01*
X8589700Y4688700D01*
X7800000Y4620000D02*
X7800000Y4688700D01*
X7798100Y4688900D02*
X7799800Y4688900D01*
X7800000Y4688700D01*
X8698900Y4738900D02*
X8700000Y4740000D01*
X8589400Y4738900D02*
X8698900Y4738900D01*
X7908900Y4738900D02*
X7910000Y4740000D01*
X7798100Y4738900D02*
X7908900Y4738900D01*
X7815400Y4788900D02*
X7961100Y4788900D01*
X8000000Y4750000D01*
X9411579Y4787744D02*
X9532257Y4787744D01*
X9588500Y4731500D01*
X9588500Y4138671D02*
X9588500Y4731500D01*
X9489257Y4739100D02*
X9490000Y4739843D01*
X9385600Y4738900D02*
X9385800Y4739100D01*
X9489257Y4739100D01*
X7860000Y1890000D02*
X7860000Y2668300D01*
X7860000Y1890000D02*
X8403800Y1346200D01*
X9271000Y1346200D01*
X7447652Y4738900D02*
X7518100Y4738900D01*
X7198300Y3330000D02*
X7860000Y2668300D01*
X7120500Y3230000D02*
X7730000Y2620500D01*
X7730000Y1795000D02*
X8699500Y825500D01*
X7730000Y1795000D02*
X7730000Y2620500D01*
X8666100Y4449200D02*
X8703400Y4411900D01*
X8524400Y4589800D02*
X8524400Y4636400D01*
X8524400Y4589800D02*
X8665000Y4449200D01*
X8666100Y4449200D01*
X8474400Y4568500D02*
X8597900Y4445000D01*
X8474400Y4568500D02*
X8474400Y4636400D01*
X8597900Y4300400D02*
X8597900Y4445000D01*
X6604000Y3060700D02*
X6693300Y3150000D01*
X7010000Y3150000D02*
X7594600Y2565400D01*
X6693300Y3150000D02*
X7010000Y3150000D01*
X6620900Y3230000D02*
X7120500Y3230000D01*
X6477000Y3086100D02*
X6620900Y3230000D01*
X6350000Y3111500D02*
X6568500Y3330000D01*
X7198300Y3330000D01*
X8520000Y3420000D02*
X9112716Y4012716D01*
X8069729Y3420000D02*
X8520000Y3420000D01*
X8069729Y3420000D02*
X8790000Y4140271D01*
X7319100Y3420000D02*
X8069729Y3420000D01*
X5642500Y3420000D02*
X7319100Y3420000D01*
X5321300Y3098800D02*
X5642500Y3420000D01*
X4240000Y3420000D02*
X5450000Y3420000D01*
X3922150Y3102150D02*
X4240000Y3420000D01*
X3670300Y3330300D02*
X3860000Y3520000D01*
X7215700Y3520000D01*
X9112716Y4012716D02*
X9462545Y4012716D01*
X5210000Y3230000D02*
X5310000Y3230000D01*
X5067300Y3087300D02*
X5210000Y3230000D01*
X3543300Y3363300D02*
X3660000Y3480000D01*
X3543300Y2925500D02*
X3543300Y3363300D01*
X3797300Y2925500D02*
X3797300Y3117300D01*
X3990000Y3310000D01*
X3922150Y2927650D02*
X3922150Y3102150D01*
X3922150Y2927650D02*
X3924300Y2925500D01*
X4940300Y2925500D02*
X4940300Y3090300D01*
X5000000Y3150000D01*
X5067300Y2925500D02*
X5067300Y3087300D01*
X8790000Y4140271D02*
X8790000Y4750000D01*
X3670300Y2925500D02*
X3670300Y3330300D01*
X7749300Y4916400D02*
X7754816Y4921916D01*
X7564414Y4918886D02*
X7566900Y4916400D01*
X8589600Y4788700D02*
X8751300Y4788700D01*
X8790000Y4750000D01*
X8589400Y4788900D02*
X8589600Y4788700D01*
X1382579Y2893878D02*
X1463907Y2812550D01*
X5067300Y2235200D02*
X5067300Y2383100D01*
X2590800Y1905000D02*
X5118100Y1905000D01*
X2163628Y2112829D02*
X2382971Y2112829D01*
X2590800Y1905000D01*
X2063250Y2213207D02*
X2163628Y2112829D01*
X3549343Y2120900D02*
X3670300Y2241857D01*
X2834380Y2120900D02*
X3549343Y2120900D01*
X2402662Y2552618D02*
X2834380Y2120900D01*
X3606800Y2057400D02*
X3794929Y2245529D01*
X2289525Y2439481D02*
X2671606Y2057400D01*
X3606800Y2057400D01*
X4737100Y1981200D02*
X4940300Y2184400D01*
X2634669Y1981200D02*
X4737100Y1981200D01*
X2232956Y2382912D02*
X2634669Y1981200D01*
X5118100Y1905000D02*
X5321300Y2108200D01*
X3479800Y2197100D02*
X3543300Y2260600D01*
X2402662Y2755982D02*
X2961544Y2197100D01*
X3479800Y2197100D01*
X2346094Y2494328D02*
X2463800Y2376622D01*
X2344372Y2494328D02*
X2346094Y2494328D01*
X2463800Y2374900D02*
X2463800Y2376622D01*
X1745978Y2213207D02*
X1746750Y2213207D01*
X3670300Y2241857D02*
X3670300Y2383100D01*
X3794929Y2245529D02*
X3794929Y2380729D01*
X6350000Y2184400D02*
X6350000Y2383100D01*
X6477000Y2082800D02*
X6477000Y2383100D01*
X7594600Y1358900D02*
X7594600Y2565400D01*
X7594600Y1358900D02*
X7848600Y1104900D01*
X1816100Y2578100D02*
X1921166Y2578100D01*
X2172922Y2326344D01*
X2176388Y2326344D01*
X1522778Y2439481D02*
X1597897Y2514600D01*
X1803400Y2514600D01*
X1520475Y2439481D02*
X1522778Y2439481D01*
X1803400Y2514600D02*
X1883596Y2434404D01*
X4681800Y2921000D02*
X4686300Y2925500D01*
X4610100Y2921000D02*
X4681800Y2921000D01*
X4517300Y2921000D02*
X4610100Y2921000D01*
X3213100Y2921000D02*
X3284800Y2921000D01*
X3289300Y2925500D01*
X1883596Y2434404D02*
X1955800Y2362200D01*
X1766146Y2399454D02*
X1879600Y2286000D01*
X6091500Y2387600D02*
X6096000Y2383100D01*
X4681800Y2387600D02*
X4686300Y2383100D01*
X4517300Y2374900D02*
X4530000Y2387600D01*
X3289300Y2383100D02*
X3289300Y2387600D01*
X9462545Y4012716D02*
X9588500Y4138671D01*
X6350000Y2925500D02*
X6350000Y3111500D01*
X6477000Y2925500D02*
X6477000Y3086100D01*
X6604000Y2925500D02*
X6604000Y3060700D01*
X5321300Y2925500D02*
X5321300Y3098800D01*
X8703400Y4410800D02*
X8703400Y4411900D01*
X9320800Y4594600D02*
X9320800Y4636200D01*
X9320600Y4636400D02*
X9320800Y4636200D01*
X9503500Y4406900D02*
X9503500Y4411900D01*
X9320800Y4594600D02*
X9503500Y4411900D01*
X9398000Y4301500D02*
X9503500Y4196000D01*
X9398000Y4301500D02*
X9398000Y4423900D01*
X9503500Y4191000D02*
X9503500Y4196000D01*
X9270600Y4551300D02*
X9398000Y4423900D01*
X9270600Y4551300D02*
X9270600Y4636400D01*
X9220600Y4435700D02*
X9291400Y4364900D01*
X9296400Y4364900D01*
X9220600Y4435700D02*
X9220600Y4636400D01*
X9170600Y4437300D02*
X9170600Y4636400D01*
X9098200Y4364900D02*
X9170600Y4437300D01*
X9093200Y4364900D02*
X9098200Y4364900D01*
X8491300Y4352200D02*
X8496300Y4352200D01*
X8424400Y4431800D02*
X8491300Y4364900D01*
X8424400Y4431800D02*
X8424400Y4636400D01*
X8491300Y4364900D02*
X8496300Y4364900D01*
X8305800Y4364900D02*
X8310800Y4364900D01*
X8374400Y4428500D02*
X8374400Y4636400D01*
X8310800Y4364900D02*
X8374400Y4428500D01*
X8597900Y4300400D02*
X8665000Y4233300D01*
X8703400Y4194900D02*
X8703400Y4196000D01*
X8665000Y4233300D02*
X8666100Y4233300D01*
X8703400Y4196000D01*
X8258899Y4352200D02*
X8263899Y4352200D01*
X7683100Y4560885D02*
X7810500Y4433485D01*
X7810500Y4296500D02*
X7810500Y4433485D01*
X7810500Y4296500D02*
X7873700Y4233300D01*
X7633100Y4435700D02*
X7633100Y4636400D01*
X7633100Y4435700D02*
X7703900Y4364900D01*
X7708900Y4364900D01*
X7523399Y4364900D02*
X7560700Y4402200D01*
X7560700Y4407200D01*
X7518399Y4364900D02*
X7523399Y4364900D01*
X7560700Y4407200D02*
X7583300Y4429800D01*
X7878700Y4233300D02*
X7916000Y4196000D01*
X7916000Y4191000D02*
X7916000Y4196000D01*
X7873700Y4233300D02*
X7878700Y4233300D01*
X7683100Y4560885D02*
X7683100Y4636400D01*
X7733300Y4594600D02*
X7733300Y4636200D01*
X7916000Y4406900D02*
X7916000Y4411900D01*
X7733300Y4594600D02*
X7916000Y4411900D01*
X7733100Y4636400D02*
X7733300Y4636200D01*
X7583100Y4636400D02*
X7583300Y4636200D01*
X7583300Y4429800D02*
X7583300Y4636200D01*
X3543300Y2260600D02*
X3543300Y2383100D01*
X1883596Y2434404D02*
X1883596Y2434404D01*
X1790700Y2451100D02*
X1879600Y2362200D01*
X1669697Y2451100D02*
X1790700Y2451100D01*
X1706722Y2399454D02*
X1766146Y2399454D01*
X1577044Y2382912D02*
X1601510Y2382912D01*
X1669697Y2451100D01*
X1633612Y2326344D02*
X1706722Y2399454D01*
X6604000Y1968500D02*
X6604000Y2383100D01*
X3794929Y2380729D02*
X3797300Y2383100D01*
X4940300Y2184400D02*
X4940300Y2383100D01*
X5321300Y2108200D02*
X5321300Y2383100D01*
X1895696Y3254596D02*
X1895696Y3258782D01*
X1447800Y3592900D02*
X1449000Y3594100D01*
X1420500Y3620200D02*
X1420500Y3630300D01*
X1257300Y3788500D02*
X1262300Y3788500D01*
X1420500Y3620200D02*
X1447800Y3592900D01*
X1445100Y3445600D02*
X1447800Y3442900D01*
X1270000Y3445600D02*
X1445100Y3445600D01*
X1265000Y3641000D02*
X1270000Y3641000D01*
X1064800Y3600700D02*
X1255100Y3600700D01*
X1270000Y3615600D01*
X1255100Y3790700D02*
X1257300Y3788500D01*
X1407338Y2755982D02*
X1407338Y2755982D01*
D40*
X2062500Y3093700D02*
X2063250Y3094450D01*
X2063250Y3100468D01*
X2257321Y3294539D01*
X2257321Y3298363D01*
X2343705Y3384747D01*
X2352604Y3384747D01*
X1803318Y3151962D02*
X1883196Y3231840D01*
X1701800Y3454400D02*
X1783689Y3372511D01*
X782300Y3600700D02*
X814800Y3600700D01*
X698500Y3656500D02*
X765000Y3590000D01*
X765000Y3457400D02*
X765000Y3590000D01*
X698500Y3656500D02*
X698500Y3790700D01*
X1367500Y1352500D02*
X1371250Y1348750D01*
X1217500Y1202500D02*
X1367500Y1352500D01*
X1918750Y1348750D02*
X1922900Y1344600D01*
X1081821Y1202500D02*
X1217500Y1202500D01*
X1371250Y1348750D02*
X1918750Y1348750D01*
X1067500Y1188179D02*
X1081821Y1202500D01*
X432500Y2422100D02*
X632900Y2622500D01*
X905000Y2622500D01*
X1067500Y990000D02*
X1067500Y1188179D01*
X3213100Y2387600D02*
X3289300Y2387600D01*
X814800Y3695700D02*
X815500Y3695000D01*
X935000Y3695000D01*
X1270000Y4504700D02*
X1270000Y4568200D01*
X1270000Y4177198D02*
X1447800Y3999398D01*
X1270000Y4177198D02*
X1270000Y4504700D01*
X1270000Y4568200D02*
X1270000Y4619000D01*
X660400Y5228600D02*
X1270000Y4619000D01*
X558800Y5228600D02*
X660400Y5228600D01*
X1447800Y3592900D02*
X1447800Y3999398D01*
X1449000Y3594100D02*
X1534800Y3594100D01*
X1064800Y3790700D02*
X1255100Y3790700D01*
X1262300Y3788500D02*
X1420500Y3630300D01*
X765300Y3303300D02*
X768600Y3300000D01*
X762000Y3454400D02*
X765300Y3451100D01*
X762000Y3454400D02*
X765000Y3457400D01*
X765300Y3303300D02*
X765300Y3451100D01*
X6019800Y2387600D02*
X6091500Y2387600D01*
X5927000Y2387600D02*
X6019800Y2387600D01*
X4610100Y2387600D02*
X4681800Y2387600D01*
X4530000Y2387600D02*
X4610100Y2387600D01*
X3133000Y2387600D02*
X3213100Y2387600D01*
X1783689Y3350789D02*
X1883196Y3251283D01*
X698500Y3790700D02*
X814800Y3790700D01*
X625000Y3790700D02*
X698500Y3790700D01*
X605700Y3810000D02*
X625000Y3790700D01*
X768600Y3288300D02*
X768600Y3300000D01*
X482600Y3271000D02*
X751300Y3271000D01*
X768600Y3288300D01*
D41*
X489600Y3199000D02*
X565840Y3199000D01*
X787220Y3152000D02*
X886600Y3152000D01*
X565840Y3199000D02*
X568340Y3196500D01*
X768166Y3198000D02*
X886600Y3198000D01*
X886600Y3152000D02*
X958600Y3080000D01*
X568340Y3196500D02*
X766666Y3196500D01*
X568340Y3150500D02*
X785720Y3150500D01*
X787220Y3152000D01*
X565840Y3148000D02*
X568340Y3150500D01*
X766666Y3196500D02*
X768166Y3198000D01*
X886600Y3198000D02*
X958600Y3270000D01*
X489600Y3148000D02*
X565840Y3148000D01*
X482600Y3206000D02*
X489600Y3199000D01*
X482600Y3141000D02*
X489600Y3148000D01*
X1030000Y3198000D02*
X1030000Y3198600D01*
X958600Y3270000D02*
X1030000Y3198600D01*
X1030000Y3198000D02*
X1280690Y3198000D01*
X1498209Y2980481D02*
X1553002Y2925688D01*
X1577044Y2925688D01*
X1280690Y3198000D02*
X1498208Y2980481D01*
X1498209Y2980481D01*
X1030000Y3152000D02*
X1261636Y3152000D01*
X1030000Y3151400D02*
X1030000Y3152000D01*
X958600Y3080000D02*
X1030000Y3151400D01*
X1465682Y2947954D02*
X1520475Y2893161D01*
X1520475Y2869119D02*
X1520475Y2893161D01*
X1261636Y3152000D02*
X1465682Y2947954D01*
X1465682Y2947954D02*
X1465682Y2947954D01*
X958600Y3270000D02*
X958600Y3300000D01*
X958600Y3050000D02*
X958600Y3080000D01*
D42*
X1270000Y4568200D02*
X1736400Y5034600D01*
X1808800Y5104895D02*
X1808800Y5107000D01*
X1894712Y5192912D01*
D43*
X1931446Y5228600D02*
X1955800Y5228600D01*
X1736400Y5034600D02*
X1738506Y5034600D01*
X1808800Y5104895D01*
X1894712Y5192912D02*
X1895758Y5192912D01*
X1931446Y5228600D01*
D44*
X1003000Y4430700D02*
D03*
X291800Y5154600D02*
D03*
X1688800Y5154600D02*
D03*
X9451000Y1740200D02*
D03*
X7774600Y1371900D02*
D03*
X8305500Y1005500D02*
D03*
X2102900Y1484600D02*
D03*
D45*
X1524000Y4504700D02*
D03*
X1397000Y4250700D02*
D03*
X1270000Y4504700D02*
D03*
X1143000Y4250700D02*
D03*
X812800Y5228600D02*
D03*
X685800Y4974600D02*
D03*
X558800Y5228600D02*
D03*
X431800Y4974600D02*
D03*
X2209800Y5228600D02*
D03*
X2082800Y4974600D02*
D03*
X1955800Y5228600D02*
D03*
X1828800Y4974600D02*
D03*
X9525000Y1219200D02*
D03*
X9271000Y1346200D02*
D03*
X9525000Y1473200D02*
D03*
X9271000Y1600200D02*
D03*
X7848600Y850900D02*
D03*
X7594600Y977900D02*
D03*
X7848600Y1104900D02*
D03*
X7594600Y1231900D02*
D03*
X8826500Y1079500D02*
D03*
X8699500Y825500D02*
D03*
X8572500Y1079500D02*
D03*
X8445500Y825500D02*
D03*
X2176900Y963600D02*
D03*
X1922900Y1090600D02*
D03*
X2176900Y1217600D02*
D03*
X1922900Y1344600D02*
D03*
D46*
X215100Y2811000D02*
D03*
X215100Y3471000D02*
D03*
D47*
X2062500Y3093700D02*
D03*
X2062500Y2980000D02*
D03*
X2003404Y3367304D02*
D03*
X2232396Y3512604D02*
D03*
X2132396Y3415104D02*
D03*
X9662500Y3797500D02*
D03*
X9612500Y3297500D02*
D03*
X9407500Y3302500D02*
D03*
X9522500Y3222500D02*
D03*
X9525000Y3377500D02*
D03*
X9520000Y3300000D02*
D03*
X9675000Y3390000D02*
D03*
X9362500Y3387500D02*
D03*
X9360000Y3210000D02*
D03*
X9675000Y3215000D02*
D03*
X9667500Y2460000D02*
D03*
X9547500Y2372500D02*
D03*
X9552500Y2450000D02*
D03*
X9560000Y2542500D02*
D03*
X9447500Y2452500D02*
D03*
X9440200Y2367500D02*
D03*
X9440200Y2545000D02*
D03*
X9680000Y2367500D02*
D03*
X9690000Y2547500D02*
D03*
X8787500Y3427500D02*
D03*
X8800600Y3092201D02*
D03*
X8785600Y3252700D02*
D03*
X8815000Y2990000D02*
D03*
X8987500Y3427500D02*
D03*
X8985601Y3252700D02*
D03*
X8970601Y3092201D02*
D03*
X9210000Y2485000D02*
D03*
X9380000Y2660000D02*
D03*
X9375000Y2960000D02*
D03*
X8510000Y1762500D02*
D03*
X8212500Y1827500D02*
D03*
X8505000Y1895000D02*
D03*
X8387500Y2017500D02*
D03*
X8392500Y1902500D02*
D03*
X7867500Y3480000D02*
D03*
X7617500Y3490000D02*
D03*
X8462500Y3477500D02*
D03*
X7360000Y3567500D02*
D03*
X1065000Y1400000D02*
D03*
X1367500Y1352500D02*
D03*
X1067500Y2075000D02*
D03*
X2040104Y1947396D02*
D03*
X905000Y2622500D02*
D03*
X330000Y2295100D02*
D03*
X1710108Y2079756D02*
D03*
X1498600Y2260600D02*
D03*
X3840000Y2175000D02*
D03*
X1695000Y2722500D02*
D03*
X1689100Y2832100D02*
D03*
X1810000Y2065000D02*
D03*
X330000Y1914100D02*
D03*
X807500Y1200000D02*
D03*
X207500Y1200000D02*
D03*
X330000Y2168100D02*
D03*
X215100Y3261000D02*
D03*
X215100Y3021000D02*
D03*
X935000Y3695000D02*
D03*
X8985000Y4780000D02*
D03*
X8215000Y4782500D02*
D03*
X7425000Y4785000D02*
D03*
X9673500Y4191000D02*
D03*
X8873400Y4191000D02*
D03*
X8086000Y4191000D02*
D03*
X3111500Y3094900D02*
D03*
X3419400Y3031900D02*
D03*
X4177500Y3035000D02*
D03*
X4345000Y3010000D02*
D03*
X5752500Y3007500D02*
D03*
X6985000Y2277500D02*
D03*
X6225000Y2270000D02*
D03*
X5760000Y2297500D02*
D03*
X5577500Y2272500D02*
D03*
X4812500Y2270000D02*
D03*
X4345000Y2285000D02*
D03*
X4177500Y2277500D02*
D03*
X3415000Y2272500D02*
D03*
X1937611Y3499711D02*
D03*
X1257300Y3958500D02*
D03*
X435700Y3810000D02*
D03*
X460100Y3461000D02*
D03*
X865000Y2982500D02*
D03*
X590000Y3010000D02*
D03*
X460100Y2821000D02*
D03*
X9410000Y3800000D02*
D03*
X8090000Y4426500D02*
D03*
X7610000Y4190000D02*
D03*
X8400000Y4190000D02*
D03*
X9190000Y4200000D02*
D03*
X2090000Y3240000D02*
D03*
X2960000Y2300000D02*
D03*
X6020000Y2920000D02*
D03*
X9670000Y4430000D02*
D03*
X8870000Y4420000D02*
D03*
X9390000Y4620000D02*
D03*
X8590000Y4620000D02*
D03*
X7800000Y4620000D02*
D03*
X8700000Y4740000D02*
D03*
X7910000Y4740000D02*
D03*
X9490000Y4739843D02*
D03*
X9292500Y2240000D02*
D03*
X9180000Y2130000D02*
D03*
X9077500Y2027500D02*
D03*
X8967500Y1917500D02*
D03*
X8840000Y1920000D02*
D03*
X8702500Y1920000D02*
D03*
X9540000Y3800000D02*
D03*
X9290000Y3800000D02*
D03*
X9610000Y5070000D02*
D03*
X8790000Y5080000D02*
D03*
X8010000Y5080000D02*
D03*
X8570000Y4850000D02*
D03*
X8320000Y4850000D02*
D03*
X8449400Y4846400D02*
D03*
X7780000Y4850000D02*
D03*
X7520000Y4850000D02*
D03*
X7658100Y4846400D02*
D03*
X7790000Y5060000D02*
D03*
X7540000Y5070000D02*
D03*
X8450000Y5045000D02*
D03*
X8330000Y5060000D02*
D03*
X8560000Y5070000D02*
D03*
X7660000Y5045000D02*
D03*
X5450000Y3420000D02*
D03*
X8360000Y3490000D02*
D03*
X5310000Y3230000D02*
D03*
X3660000Y3480000D02*
D03*
X3990000Y3310000D02*
D03*
X5000000Y3150000D02*
D03*
X9140000Y5050000D02*
D03*
X9380000Y5050000D02*
D03*
X9260000Y5035000D02*
D03*
X9610000Y4850000D02*
D03*
X9400000Y4850000D02*
D03*
X9100000Y4850000D02*
D03*
X9245600Y4846400D02*
D03*
X5067300Y2235200D02*
D03*
X2349500Y2057400D02*
D03*
X2463800Y2374900D02*
D03*
X6350000Y2184400D02*
D03*
X6477000Y2082800D02*
D03*
X6985000Y3048000D02*
D03*
X6223000Y3048000D02*
D03*
X5575300Y3048000D02*
D03*
X4813300Y3060700D02*
D03*
X1816100Y2578100D02*
D03*
X3213100Y2921000D02*
D03*
X4610100Y2921000D02*
D03*
X1955800Y2362200D02*
D03*
X1879600Y2286000D02*
D03*
X762000Y3454400D02*
D03*
X4610100Y2387600D02*
D03*
X3213100Y2387600D02*
D03*
X6019800Y2387600D02*
D03*
X1879600Y2362200D02*
D03*
X6604000Y1968500D02*
D03*
X1534800Y3594100D02*
D03*
X1701800Y3454400D02*
D03*
%TF.MD5,15045179bb111bc750402b454b8ba575*%
M02*
