%TF.GenerationSoftware,Altium Limited,Altium Designer,22.9.1 (49)*%
G04 Layer_Color=8388736*
%FSLAX45Y45*%
%MOMM*%
%TF.SameCoordinates,925A93EA-3B44-44BF-AA41-ED200E7300F1*%
%TF.FilePolarity,Negative*%
%TF.FileFunction,Soldermask,Top*%
%TF.Part,Single*%
G01*
G75*
%TA.AperFunction,SMDPad,CuDef*%
%ADD63R,1.60320X1.20320*%
%ADD64R,1.30320X1.20320*%
%TA.AperFunction,ComponentPad*%
%ADD65C,0.95320*%
%ADD66C,1.50320*%
%ADD67C,2.15320*%
%TA.AperFunction,SMDPad,CuDef*%
G04:AMPARAMS|DCode=71|XSize=1.2032mm|YSize=1.3032mm|CornerRadius=0mm|HoleSize=0mm|Usage=FLASHONLY|Rotation=315.000|XOffset=0mm|YOffset=0mm|HoleType=Round|Shape=Rectangle|*
%AMROTATEDRECTD71*
4,1,4,-0.88615,-0.03535,0.03535,0.88615,0.88615,0.03535,-0.03535,-0.88615,-0.88615,-0.03535,0.0*
%
%ADD71ROTATEDRECTD71*%

%ADD72R,1.20320X1.60320*%
%ADD73R,1.20320X1.30320*%
%ADD74R,0.50320X0.67820*%
%ADD75R,1.85320X5.80320*%
%ADD76R,1.30320X2.00320*%
%ADD77R,4.20320X2.70320*%
%ADD78R,2.20320X1.20320*%
%ADD79R,2.20320X1.20320*%
%ADD80R,2.10320X2.10320*%
%ADD81R,2.99320X0.94320*%
G04:AMPARAMS|DCode=82|XSize=1.6782mm|YSize=0.8032mm|CornerRadius=0mm|HoleSize=0mm|Usage=FLASHONLY|Rotation=225.000|XOffset=0mm|YOffset=0mm|HoleType=Round|Shape=Rectangle|*
%AMROTATEDRECTD82*
4,1,4,0.30936,0.87731,0.87731,0.30936,-0.30936,-0.87731,-0.87731,-0.30936,0.30936,0.87731,0.0*
%
%ADD82ROTATEDRECTD82*%

G04:AMPARAMS|DCode=83|XSize=1.6782mm|YSize=0.8032mm|CornerRadius=0mm|HoleSize=0mm|Usage=FLASHONLY|Rotation=135.000|XOffset=0mm|YOffset=0mm|HoleType=Round|Shape=Rectangle|*
%AMROTATEDRECTD83*
4,1,4,0.87731,-0.30936,0.30936,-0.87731,-0.87731,0.30936,-0.30936,0.87731,0.87731,-0.30936,0.0*
%
%ADD83ROTATEDRECTD83*%

%ADD84R,0.80320X0.45320*%
%ADD85R,3.70320X0.70320*%
%ADD86R,1.87820X0.70320*%
%ADD87R,3.70320X1.60320*%
%ADD88R,0.45320X0.80320*%
%ADD89R,0.85320X1.72820*%
G04:AMPARAMS|DCode=90|XSize=1.2032mm|YSize=1.3032mm|CornerRadius=0mm|HoleSize=0mm|Usage=FLASHONLY|Rotation=225.000|XOffset=0mm|YOffset=0mm|HoleType=Round|Shape=Rectangle|*
%AMROTATEDRECTD90*
4,1,4,-0.03535,0.88615,0.88615,-0.03535,0.03535,-0.88615,-0.88615,0.03535,-0.03535,0.88615,0.0*
%
%ADD90ROTATEDRECTD90*%

G04:AMPARAMS|DCode=91|XSize=1.2032mm|YSize=1.6032mm|CornerRadius=0mm|HoleSize=0mm|Usage=FLASHONLY|Rotation=225.000|XOffset=0mm|YOffset=0mm|HoleType=Round|Shape=Rectangle|*
%AMROTATEDRECTD91*
4,1,4,-0.14142,0.99221,0.99221,-0.14142,0.14142,-0.99221,-0.99221,0.14142,-0.14142,0.99221,0.0*
%
%ADD91ROTATEDRECTD91*%

%ADD92R,2.10320X2.10320*%
%ADD93R,1.00320X1.00320*%
%TA.AperFunction,ConnectorPad*%
%ADD94R,1.60320X1.80320*%
%ADD95R,1.55320X0.60320*%
%TA.AperFunction,SMDPad,CuDef*%
%ADD96R,0.80320X1.40320*%
%ADD97R,1.45320X0.80320*%
D63*
X1065000Y1200000D02*
D03*
X1065000Y1400000D02*
D03*
D64*
X9210000Y2490000D02*
D03*
X9210000Y2660000D02*
D03*
X1070000Y2082500D02*
D03*
X1070000Y1912500D02*
D03*
X8496300Y4194900D02*
D03*
X8496300Y4364900D02*
D03*
X9093200Y4194900D02*
D03*
X9093200Y4364900D02*
D03*
X9296400Y4194900D02*
D03*
X9296400Y4364900D02*
D03*
X7518399Y4194900D02*
D03*
X7518399Y4364900D02*
D03*
X7708900Y4194900D02*
D03*
X7708900Y4364900D02*
D03*
X8305800Y4194900D02*
D03*
X8305800Y4364900D02*
D03*
X3111500Y3094900D02*
D03*
X3111500Y2924900D02*
D03*
X1597500Y1072500D02*
D03*
X1597500Y902500D02*
D03*
X1257300Y3958500D02*
D03*
X1257300Y3788500D02*
D03*
X1270000Y3615600D02*
D03*
X1270000Y3445600D02*
D03*
D65*
X1003000Y4430700D02*
D03*
X291800Y5154600D02*
D03*
X1688800Y5154600D02*
D03*
X9451000Y1740200D02*
D03*
X7774600Y1371900D02*
D03*
X8305500Y1005500D02*
D03*
X2102900Y1484600D02*
D03*
D66*
X1524000Y4504700D02*
D03*
X1397000Y4250700D02*
D03*
X1270000Y4504700D02*
D03*
X1143000Y4250700D02*
D03*
X812800Y5228600D02*
D03*
X685800Y4974600D02*
D03*
X558800Y5228600D02*
D03*
X431800Y4974600D02*
D03*
X2209800Y5228600D02*
D03*
X2082800Y4974600D02*
D03*
X1955800Y5228600D02*
D03*
X1828800Y4974600D02*
D03*
X9525000Y1219200D02*
D03*
X9271000Y1346200D02*
D03*
X9525000Y1473200D02*
D03*
X9271000Y1600200D02*
D03*
X7848600Y850900D02*
D03*
X7594600Y977900D02*
D03*
X7848600Y1104900D02*
D03*
X7594600Y1231900D02*
D03*
X8826500Y1079500D02*
D03*
X8699500Y825500D02*
D03*
X8572500Y1079500D02*
D03*
X8445500Y825500D02*
D03*
X2176900Y963600D02*
D03*
X1922900Y1090600D02*
D03*
X2176900Y1217600D02*
D03*
X1922900Y1344600D02*
D03*
D67*
X215100Y2811000D02*
D03*
X215100Y3471000D02*
D03*
D71*
X2232396Y3512604D02*
D03*
X2352604Y3392396D02*
D03*
X2132396Y3415104D02*
D03*
X2252604Y3294896D02*
D03*
X2040104Y1947396D02*
D03*
X1919896Y2067604D02*
D03*
D72*
X8985601Y3252700D02*
D03*
X8785600Y3252700D02*
D03*
X8987500Y3427500D02*
D03*
X8787500Y3427500D02*
D03*
D73*
X8970601Y3092201D02*
D03*
X8800600Y3092201D02*
D03*
X9020000Y2552500D02*
D03*
X8850000Y2552500D02*
D03*
X9205000Y2810000D02*
D03*
X9375000Y2810000D02*
D03*
X9375000Y2960000D02*
D03*
X9205000Y2960000D02*
D03*
X8387500Y2017500D02*
D03*
X8217500Y2017500D02*
D03*
X9673500Y4191000D02*
D03*
X9503500Y4191000D02*
D03*
X9673500Y4406900D02*
D03*
X9503500Y4406900D02*
D03*
X8873400Y4191000D02*
D03*
X8703400Y4191000D02*
D03*
X8873400Y4406900D02*
D03*
X8703400Y4406900D02*
D03*
X8086000Y4191000D02*
D03*
X7916000Y4191000D02*
D03*
X8086000Y4406900D02*
D03*
X7916000Y4406900D02*
D03*
X4347300Y2921000D02*
D03*
X4517300Y2921000D02*
D03*
X4347300Y2374900D02*
D03*
X4517300Y2374900D02*
D03*
X5755000Y2920000D02*
D03*
X5925000Y2920000D02*
D03*
X5757000Y2387600D02*
D03*
X5927000Y2387600D02*
D03*
X2963000Y2387600D02*
D03*
X3133000Y2387600D02*
D03*
X435700Y3810000D02*
D03*
X605700Y3810000D02*
D03*
D74*
X9035000Y2973800D02*
D03*
X8985000Y2973800D02*
D03*
X8935000Y2973800D02*
D03*
X8885000Y2973800D02*
D03*
X8885000Y2806200D02*
D03*
X8935000Y2806200D02*
D03*
X8985000Y2806200D02*
D03*
X9035000Y2806200D02*
D03*
D75*
X8190000Y2430000D02*
D03*
X8605000Y2430000D02*
D03*
D76*
X8212500Y1827500D02*
D03*
X8512500Y1827500D02*
D03*
D77*
X9520000Y3300000D02*
D03*
X9520000Y2455000D02*
D03*
D78*
X207500Y1600000D02*
D03*
X807500Y1600000D02*
D03*
D79*
X207500Y1200000D02*
D03*
X807500Y1200000D02*
D03*
D80*
X9440000Y5337500D02*
D03*
X8647500Y5327500D02*
D03*
X8247500Y5337500D02*
D03*
X7463700Y5337500D02*
D03*
X7857500Y5337500D02*
D03*
X9051200Y5337500D02*
D03*
D81*
X737000Y1914100D02*
D03*
X330000Y1914100D02*
D03*
X737000Y2041100D02*
D03*
X330000Y2041100D02*
D03*
X737000Y2168100D02*
D03*
X330000Y2168100D02*
D03*
X737000Y2295100D02*
D03*
X330000Y2295100D02*
D03*
X737000Y2422100D02*
D03*
X330000Y2422100D02*
D03*
D82*
X1803318Y2156638D02*
D03*
X1746750Y2213207D02*
D03*
X1690181Y2269775D02*
D03*
X1633612Y2326344D02*
D03*
X1577044Y2382912D02*
D03*
X1520475Y2439481D02*
D03*
X1463907Y2496050D02*
D03*
X1407338Y2552618D02*
D03*
X2006682Y3151962D02*
D03*
X2063250Y3095393D02*
D03*
X2119819Y3038825D02*
D03*
X2176388Y2982256D02*
D03*
X2232956Y2925688D02*
D03*
X2289525Y2869119D02*
D03*
X2346093Y2812550D02*
D03*
X2402662Y2755982D02*
D03*
D83*
X1407338Y2755982D02*
D03*
X1463907Y2812550D02*
D03*
X1520475Y2869119D02*
D03*
X1577044Y2925688D02*
D03*
X1633612Y2982256D02*
D03*
X1690181Y3038825D02*
D03*
X1746750Y3095393D02*
D03*
X1803318Y3151962D02*
D03*
X2402662Y2552618D02*
D03*
X2346093Y2496050D02*
D03*
X2289525Y2439481D02*
D03*
X2232956Y2382912D02*
D03*
X2176388Y2326344D02*
D03*
X2119819Y2269775D02*
D03*
X2063250Y2213207D02*
D03*
X2006682Y2156638D02*
D03*
D84*
X7798100Y4688900D02*
D03*
X7798100Y4738900D02*
D03*
X7798100Y4788900D02*
D03*
X7518100Y4788900D02*
D03*
X7518100Y4738900D02*
D03*
X7518100Y4688900D02*
D03*
X8309400Y4688900D02*
D03*
X8309400Y4738900D02*
D03*
X8309400Y4788900D02*
D03*
X8589400Y4788900D02*
D03*
X8589400Y4738900D02*
D03*
X8589400Y4688900D02*
D03*
X9385600Y4688900D02*
D03*
X9385600Y4738900D02*
D03*
X9385600Y4788900D02*
D03*
X9105600Y4788900D02*
D03*
X9105600Y4738900D02*
D03*
X9105600Y4688900D02*
D03*
D85*
X7658100Y4846400D02*
D03*
X8449400Y4846400D02*
D03*
X9245600Y4846400D02*
D03*
D86*
X7749300Y4916400D02*
D03*
X7566900Y4916400D02*
D03*
X8358200Y4916400D02*
D03*
X8540600Y4916400D02*
D03*
X9336800Y4916400D02*
D03*
X9154400Y4916400D02*
D03*
D87*
X7658100Y5031400D02*
D03*
X8449400Y5031400D02*
D03*
X9245600Y5031400D02*
D03*
D88*
X7583100Y4636400D02*
D03*
X7633100Y4636400D02*
D03*
X7683100Y4636400D02*
D03*
X7733100Y4636400D02*
D03*
X8524400Y4636400D02*
D03*
X8474400Y4636400D02*
D03*
X8424400Y4636400D02*
D03*
X8374400Y4636400D02*
D03*
X9170600Y4636400D02*
D03*
X9220600Y4636400D02*
D03*
X9270600Y4636400D02*
D03*
X9320600Y4636400D02*
D03*
D89*
X4686300Y2383100D02*
D03*
X4813300Y2383100D02*
D03*
X4940300Y2383100D02*
D03*
X5067300Y2383100D02*
D03*
X5194300Y2383100D02*
D03*
X5321300Y2383100D02*
D03*
X5448300Y2383100D02*
D03*
X5575300Y2383100D02*
D03*
X5575300Y2925500D02*
D03*
X5448300Y2925500D02*
D03*
X5321300Y2925500D02*
D03*
X5194300Y2925500D02*
D03*
X5067300Y2925500D02*
D03*
X4940300Y2925500D02*
D03*
X4813300Y2925500D02*
D03*
X4686300Y2925500D02*
D03*
X6096000Y2383100D02*
D03*
X6223000Y2383100D02*
D03*
X6350000Y2383100D02*
D03*
X6477000Y2383100D02*
D03*
X6604000Y2383100D02*
D03*
X6731000Y2383100D02*
D03*
X6858000Y2383100D02*
D03*
X6985000Y2383100D02*
D03*
X6985000Y2925500D02*
D03*
X6858000Y2925500D02*
D03*
X6731000Y2925500D02*
D03*
X6604000Y2925500D02*
D03*
X6477000Y2925500D02*
D03*
X6350000Y2925500D02*
D03*
X6223000Y2925500D02*
D03*
X6096000Y2925500D02*
D03*
X3289300Y2383100D02*
D03*
X3416300Y2383100D02*
D03*
X3543300Y2383100D02*
D03*
X3670300Y2383100D02*
D03*
X3797300Y2383100D02*
D03*
X3924300Y2383100D02*
D03*
X4051300Y2383100D02*
D03*
X4178300Y2383100D02*
D03*
X4178300Y2925500D02*
D03*
X4051300Y2925500D02*
D03*
X3924300Y2925500D02*
D03*
X3797300Y2925500D02*
D03*
X3670300Y2925500D02*
D03*
X3543300Y2925500D02*
D03*
X3416300Y2925500D02*
D03*
X3289300Y2925500D02*
D03*
D90*
X1883196Y3247096D02*
D03*
X2003404Y3367304D02*
D03*
D91*
X1783689Y3350789D02*
D03*
X1925111Y3492211D02*
D03*
D92*
X1067500Y990000D02*
D03*
X1367500Y992500D02*
D03*
X215100Y3021000D02*
D03*
X215100Y3261000D02*
D03*
D93*
X1447800Y3442900D02*
D03*
X1447800Y3592900D02*
D03*
D94*
X460100Y2821000D02*
D03*
X460100Y3461000D02*
D03*
D95*
X482600Y3011000D02*
D03*
X482600Y3076000D02*
D03*
X482600Y3141000D02*
D03*
X482600Y3206000D02*
D03*
X482600Y3271000D02*
D03*
D96*
X768600Y3050000D02*
D03*
X863600Y3050000D02*
D03*
X958600Y3050000D02*
D03*
X958600Y3300000D02*
D03*
X768600Y3300000D02*
D03*
D97*
X814800Y3790700D02*
D03*
X814800Y3695700D02*
D03*
X814800Y3600700D02*
D03*
X1064800Y3600700D02*
D03*
X1064800Y3790700D02*
D03*
%TF.MD5,517cad53f1b1a9c5f1b259856db21f4d*%
M02*
