%TF.GenerationSoftware,Altium Limited,Altium Designer,22.9.1 (49)*%
G04 Layer_Physical_Order=4*
G04 Layer_Color=16711680*
%FSLAX45Y45*%
%MOMM*%
%TF.SameCoordinates,925A93EA-3B44-44BF-AA41-ED200E7300F1*%
%TF.FilePolarity,Positive*%
%TF.FileFunction,Copper,L4,Bot,Signal*%
%TF.Part,Single*%
G01*
G75*
%TA.AperFunction,SMDPad,CuDef*%
%ADD15R,1.10000X1.00000*%
%ADD20R,1.40000X1.00000*%
%TA.AperFunction,Conductor*%
%ADD39C,0.25400*%
%ADD40C,0.50000*%
%TA.AperFunction,ComponentPad*%
%ADD44C,0.75000*%
%ADD45C,1.30000*%
%ADD46C,1.95000*%
%TA.AperFunction,ViaPad*%
%ADD47C,0.45000*%
%TA.AperFunction,SMDPad,CuDef*%
%ADD55R,4.20000X3.10000*%
%ADD56R,4.70000X1.50000*%
%ADD57R,0.70000X1.15000*%
G36*
X800100Y5125853D02*
X799772Y5130768D01*
X798788Y5135843D01*
X797148Y5141077D01*
X794852Y5146471D01*
X791900Y5152024D01*
X788292Y5157736D01*
X784028Y5163608D01*
X779108Y5169640D01*
X767300Y5182181D01*
X858300Y5182181D01*
X852068Y5175831D01*
X841572Y5163608D01*
X837308Y5157736D01*
X833700Y5152024D01*
X830748Y5146471D01*
X828452Y5141077D01*
X826812Y5135843D01*
X825828Y5130768D01*
X825500Y5125853D01*
X800100Y5125853D01*
X800100Y5125853D02*
G37*
G36*
X9715000Y4980000D02*
X7362500Y4980000D01*
X7362500Y5447500D01*
X8780244Y5447500D01*
X8797500Y5446142D01*
X8814757Y5447500D01*
X9715000Y5447500D01*
X9715000Y4980000D01*
X9715000Y4980000D02*
G37*
G36*
X8282500Y1811072D02*
X8282500Y1720000D01*
X8790000Y1212500D01*
X8790000Y1210000D01*
X8792500Y1210000D01*
X8825000Y1177500D01*
X9269999Y1177500D01*
X9402500Y1310000D01*
X9642500Y1310000D01*
X9642500Y1132500D01*
X9637039Y1120000D01*
X9452500Y1120000D01*
X9317500Y985000D01*
X8782500Y985000D01*
X8100000Y1667500D01*
X8100000Y1804916D01*
X8109051Y1813824D01*
X8282500Y1811072D01*
X8282500Y1811072D02*
G37*
G36*
X9690000Y4676660D02*
X9626302Y4676660D01*
X9550388Y4752574D01*
X9542826Y4757627D01*
X9533907Y4759401D01*
X9519999Y4759401D01*
X9519841Y4759782D01*
X9509939Y4769684D01*
X9497002Y4775043D01*
X9482998Y4775043D01*
X9470061Y4769684D01*
X9460159Y4759782D01*
X9454800Y4746845D01*
X9454800Y4732842D01*
X9460159Y4719904D01*
X9470061Y4710003D01*
X9482998Y4704644D01*
X9497002Y4704644D01*
X9509939Y4710003D01*
X9512722Y4712785D01*
X9524252Y4712785D01*
X9548645Y4688393D01*
X9543784Y4676660D01*
X9442540Y4676660D01*
X9442540Y4643308D01*
X9416472Y4643308D01*
X9409939Y4649841D01*
X9397002Y4655200D01*
X9382998Y4655200D01*
X9370061Y4649841D01*
X9360159Y4639939D01*
X9354800Y4627002D01*
X9354800Y4612998D01*
X9360159Y4600061D01*
X9370061Y4590159D01*
X9382998Y4584800D01*
X9397002Y4584800D01*
X9409939Y4590159D01*
X9416472Y4596692D01*
X9442540Y4596692D01*
X9442540Y4556340D01*
X9572860Y4556340D01*
X9572860Y4647584D01*
X9584593Y4652445D01*
X9594840Y4642198D01*
X9594840Y4556340D01*
X9690000Y4556340D01*
X9690000Y4506660D01*
X9594840Y4506660D01*
X9594840Y4386340D01*
X9690000Y4386340D01*
X9690000Y4232546D01*
X9680502Y4226200D01*
X9666498Y4226200D01*
X9653561Y4220841D01*
X9643659Y4210939D01*
X9638300Y4198002D01*
X9638300Y4183998D01*
X9643659Y4171061D01*
X9653561Y4161159D01*
X9666498Y4155800D01*
X9680502Y4155800D01*
X9690000Y4149454D01*
X9690000Y3871360D01*
X9615340Y3871360D01*
X9615340Y3737500D01*
X7430000Y3737500D01*
X7430000Y4749800D01*
X7432002Y4749800D01*
X7444939Y4755159D01*
X7454841Y4765061D01*
X7460200Y4777998D01*
X7460200Y4792002D01*
X7454841Y4804939D01*
X7444939Y4814841D01*
X7432002Y4820200D01*
X7430000Y4820200D01*
X7430000Y4940000D01*
X9690000Y4940000D01*
X9690000Y4676660D01*
X9690000Y4676660D02*
G37*
%LPC*%
G36*
X7510000Y5103308D02*
X7490000Y5103308D01*
X7481081Y5101534D01*
X7473519Y5096481D01*
X7436219Y5059181D01*
X7431166Y5051619D01*
X7429392Y5042700D01*
X7429392Y5022700D01*
X7431166Y5013780D01*
X7436219Y5006219D01*
X7443780Y5001166D01*
X7452700Y4999392D01*
X7461619Y5001166D01*
X7469181Y5006219D01*
X7474233Y5013780D01*
X7476008Y5022700D01*
X7476008Y5033046D01*
X7499654Y5056692D01*
X7510000Y5056692D01*
X7518919Y5058466D01*
X7526481Y5063519D01*
X7531534Y5071081D01*
X7533308Y5080000D01*
X7531534Y5088919D01*
X7526481Y5096481D01*
X7518919Y5101534D01*
X7510000Y5103308D01*
X7510000Y5103308D02*
G37*
G36*
X8222002Y4817700D02*
X8207998Y4817700D01*
X8195061Y4812341D01*
X8185159Y4802439D01*
X8179800Y4789502D01*
X8179800Y4775498D01*
X8185159Y4762561D01*
X8195061Y4752659D01*
X8207998Y4747300D01*
X8222002Y4747300D01*
X8234939Y4752659D01*
X8244841Y4762561D01*
X8250200Y4775498D01*
X8250200Y4789502D01*
X8244841Y4802439D01*
X8234939Y4812341D01*
X8222002Y4817700D01*
X8222002Y4817700D02*
G37*
G36*
X8992002Y4815200D02*
X8977998Y4815200D01*
X8965061Y4809841D01*
X8955159Y4799939D01*
X8949800Y4787002D01*
X8949800Y4772998D01*
X8955159Y4760061D01*
X8965061Y4750159D01*
X8977998Y4744800D01*
X8992002Y4744800D01*
X9004939Y4750159D01*
X9014841Y4760061D01*
X9020200Y4772998D01*
X9020200Y4787002D01*
X9014841Y4799939D01*
X9004939Y4809841D01*
X8992002Y4815200D01*
X8992002Y4815200D02*
G37*
G36*
X8707002Y4775200D02*
X8692998Y4775200D01*
X8680061Y4769841D01*
X8670159Y4759939D01*
X8664800Y4747002D01*
X8664800Y4732998D01*
X8670159Y4720061D01*
X8680061Y4710159D01*
X8692998Y4704800D01*
X8707002Y4704800D01*
X8719939Y4710159D01*
X8732544Y4705994D01*
X8750145Y4688393D01*
X8745285Y4676660D01*
X8642540Y4676660D01*
X8642540Y4643308D01*
X8616472Y4643308D01*
X8609939Y4649841D01*
X8597002Y4655200D01*
X8582998Y4655200D01*
X8570061Y4649841D01*
X8560159Y4639939D01*
X8554800Y4627002D01*
X8554800Y4612998D01*
X8560159Y4600061D01*
X8570061Y4590159D01*
X8582998Y4584800D01*
X8597002Y4584800D01*
X8609939Y4590159D01*
X8616472Y4596692D01*
X8642540Y4596692D01*
X8642540Y4556340D01*
X8772860Y4556340D01*
X8772860Y4649084D01*
X8784593Y4653944D01*
X8794840Y4643698D01*
X8794840Y4556340D01*
X8925160Y4556340D01*
X8925160Y4676660D01*
X8827803Y4676660D01*
X8751732Y4752731D01*
X8744170Y4757783D01*
X8735250Y4759557D01*
X8729999Y4759557D01*
X8729841Y4759939D01*
X8719939Y4769841D01*
X8707002Y4775200D01*
X8707002Y4775200D02*
G37*
G36*
X7917002Y4775200D02*
X7902998Y4775200D01*
X7890061Y4769841D01*
X7880159Y4759939D01*
X7874800Y4747002D01*
X7874800Y4732998D01*
X7880159Y4720061D01*
X7890061Y4710159D01*
X7902998Y4704800D01*
X7917002Y4704800D01*
X7929939Y4710159D01*
X7932722Y4712942D01*
X7935596Y4712942D01*
X7960145Y4688393D01*
X7955284Y4676660D01*
X7852540Y4676660D01*
X7852540Y4643308D01*
X7826472Y4643308D01*
X7819939Y4649841D01*
X7807002Y4655200D01*
X7792998Y4655200D01*
X7780061Y4649841D01*
X7770159Y4639939D01*
X7764800Y4627002D01*
X7764800Y4612998D01*
X7770159Y4600061D01*
X7780061Y4590159D01*
X7792998Y4584800D01*
X7807002Y4584800D01*
X7819939Y4590159D01*
X7826472Y4596692D01*
X7852540Y4596692D01*
X7852540Y4556340D01*
X7982859Y4556340D01*
X7982859Y4649085D01*
X7994593Y4653945D01*
X8004840Y4643698D01*
X8004840Y4556340D01*
X8135160Y4556340D01*
X8135160Y4676660D01*
X8037802Y4676660D01*
X7961731Y4752731D01*
X7954170Y4757783D01*
X7945250Y4759557D01*
X7939999Y4759557D01*
X7939841Y4759939D01*
X7929939Y4769841D01*
X7917002Y4775200D01*
X7917002Y4775200D02*
G37*
G36*
X8135160Y4506660D02*
X8004840Y4506660D01*
X8004840Y4386340D01*
X8135160Y4386340D01*
X8135160Y4506660D01*
X8135160Y4506660D02*
G37*
G36*
X8925160Y4506660D02*
X8794840Y4506660D01*
X8794840Y4386340D01*
X8859281Y4386340D01*
X8862998Y4384800D01*
X8877002Y4384800D01*
X8880719Y4386340D01*
X8925160Y4386340D01*
X8925160Y4506660D01*
X8925160Y4506660D02*
G37*
G36*
X9197002Y4235200D02*
X9182998Y4235200D01*
X9170061Y4229841D01*
X9160159Y4219939D01*
X9154800Y4207002D01*
X9154800Y4192998D01*
X9160159Y4180061D01*
X9170061Y4170159D01*
X9182998Y4164800D01*
X9197002Y4164800D01*
X9209939Y4170159D01*
X9219841Y4180061D01*
X9225200Y4192998D01*
X9225200Y4207002D01*
X9219841Y4219939D01*
X9209939Y4229841D01*
X9197002Y4235200D01*
X9197002Y4235200D02*
G37*
G36*
X8880402Y4226200D02*
X8866398Y4226200D01*
X8853461Y4220841D01*
X8843559Y4210939D01*
X8838200Y4198002D01*
X8838200Y4183998D01*
X8843559Y4171061D01*
X8853461Y4161159D01*
X8866398Y4155800D01*
X8880402Y4155800D01*
X8893339Y4161159D01*
X8903241Y4171061D01*
X8908600Y4183998D01*
X8908600Y4198002D01*
X8903241Y4210939D01*
X8893339Y4220841D01*
X8880402Y4226200D01*
X8880402Y4226200D02*
G37*
G36*
X8093002Y4226200D02*
X8078998Y4226200D01*
X8066061Y4220841D01*
X8056159Y4210939D01*
X8050800Y4198002D01*
X8050800Y4183998D01*
X8056159Y4171061D01*
X8066061Y4161159D01*
X8078998Y4155800D01*
X8093002Y4155800D01*
X8105939Y4161159D01*
X8115841Y4171061D01*
X8121200Y4183998D01*
X8121200Y4198002D01*
X8115841Y4210939D01*
X8105939Y4220841D01*
X8093002Y4226200D01*
X8093002Y4226200D02*
G37*
G36*
X8407002Y4225200D02*
X8392998Y4225200D01*
X8380061Y4219841D01*
X8370159Y4209939D01*
X8364800Y4197002D01*
X8364800Y4182998D01*
X8370159Y4170061D01*
X8380061Y4160159D01*
X8392998Y4154800D01*
X8407002Y4154800D01*
X8419939Y4160159D01*
X8429841Y4170061D01*
X8435200Y4182998D01*
X8435200Y4197002D01*
X8429841Y4209939D01*
X8419939Y4219841D01*
X8407002Y4225200D01*
X8407002Y4225200D02*
G37*
G36*
X7617002Y4225200D02*
X7602998Y4225200D01*
X7590061Y4219841D01*
X7580159Y4209939D01*
X7574800Y4197002D01*
X7574800Y4182998D01*
X7580159Y4170061D01*
X7590061Y4160159D01*
X7602998Y4154800D01*
X7617002Y4154800D01*
X7629939Y4160159D01*
X7639841Y4170061D01*
X7645200Y4182998D01*
X7645200Y4197002D01*
X7639841Y4209939D01*
X7629939Y4219841D01*
X7617002Y4225200D01*
X7617002Y4225200D02*
G37*
%LPD*%
D15*
X8860000Y4616500D02*
D03*
X8860000Y4446500D02*
D03*
X8707700Y4446500D02*
D03*
X8707700Y4616500D02*
D03*
X7917699Y4446500D02*
D03*
X7917699Y4616500D02*
D03*
X8070000Y4616500D02*
D03*
X8070000Y4446500D02*
D03*
X9660000Y4616500D02*
D03*
X9660000Y4446500D02*
D03*
X9507700Y4446500D02*
D03*
X9507700Y4616500D02*
D03*
X7660000Y4875000D02*
D03*
X7660000Y5045000D02*
D03*
X8450000Y4875000D02*
D03*
X8450000Y5045000D02*
D03*
X9260000Y4875000D02*
D03*
X9260000Y5045000D02*
D03*
D20*
X7510000Y4880000D02*
D03*
X7510000Y5080000D02*
D03*
X7820000Y5080000D02*
D03*
X7820000Y4880000D02*
D03*
X9100000Y5070000D02*
D03*
X9100000Y4870000D02*
D03*
X9610000Y5070000D02*
D03*
X9610000Y4870000D02*
D03*
X8300000Y5080000D02*
D03*
X8300000Y4880000D02*
D03*
X8600000Y5080000D02*
D03*
X8600000Y4880000D02*
D03*
X8010000Y4880000D02*
D03*
X8010000Y5080000D02*
D03*
X8790000Y4880000D02*
D03*
X8790000Y5080000D02*
D03*
X9420000Y4870000D02*
D03*
X9420000Y5070000D02*
D03*
D39*
X9660250Y3799750D02*
X9662500Y3797500D01*
X9660250Y3799750D02*
X9660250Y3807250D01*
X4015304Y3330000D02*
X7717500Y3330000D01*
X3990000Y3310000D02*
X3995304Y3310000D01*
X4015304Y3330000D01*
X7717500Y3330000D02*
X7867500Y3480000D01*
X5450000Y3420000D02*
X7547500Y3420000D01*
X7617500Y3490000D01*
X5310000Y3230000D02*
X8100000Y3230000D01*
X8360000Y3490000D01*
X8134600Y3149600D02*
X8462500Y3477500D01*
X5000400Y3149600D02*
X8134600Y3149600D01*
X3700000Y3520000D02*
X7312500Y3520000D01*
X7360000Y3567500D01*
X3660000Y3480000D02*
X3700000Y3520000D01*
X1498600Y2260600D02*
X1816100Y2578100D01*
X2463800Y2374900D02*
X2663700Y2175000D01*
X3840000Y2175000D01*
X685800Y3731700D02*
X685800Y4974600D01*
X685800Y3731700D02*
X1695000Y2722500D01*
X812800Y3708400D02*
X1689100Y2832100D01*
X812800Y3708400D02*
X812800Y5228600D01*
X8070000Y4446500D02*
X8090000Y4426500D01*
X9390000Y4620000D02*
X9504200Y4620000D01*
X9507700Y4616500D01*
X8590000Y4620000D02*
X8704300Y4620000D01*
X8707700Y4616600D01*
X7891699Y4620000D02*
X7917699Y4594000D01*
X7800000Y4620000D02*
X7891699Y4620000D01*
X8703750Y4736250D02*
X8735250Y4736250D01*
X8856500Y4615000D01*
X8860000Y4615000D01*
X8700000Y4740000D02*
X8703750Y4736250D01*
X7913750Y4736250D02*
X7945250Y4736250D01*
X8065000Y4616500D01*
X7910000Y4740000D02*
X7913750Y4736250D01*
X8065000Y4595000D02*
X8070000Y4595000D01*
X8056750Y4603250D02*
X8065000Y4595000D01*
X8065000Y4616500D02*
X8070000Y4616500D01*
X9490000Y4739843D02*
X9493750Y4736093D01*
X9533907Y4736093D01*
X9655000Y4615000D01*
X9660000Y4615000D01*
X7452700Y5042700D02*
X7490000Y5080000D01*
X7452700Y5022700D02*
X7452700Y5042700D01*
X7490000Y5080000D02*
X7510000Y5080000D01*
X5000000Y3150000D02*
X5000400Y3149600D01*
X4889500Y2057400D02*
X5067300Y2235200D01*
X2349500Y2057400D02*
X4889500Y2057400D01*
X1955800Y2362200D02*
X2313300Y2004700D01*
X6170300Y2004700D01*
X6350000Y2184400D01*
X1879600Y2362200D02*
X2324100Y1917700D01*
X6311900Y1917700D01*
X1879600Y2286000D02*
X2349500Y1816100D01*
X6451600Y1816100D01*
X6604000Y1968500D01*
X6311900Y1917700D02*
X6477000Y2082800D01*
D40*
X1562100Y3594100D02*
X1701800Y3454400D01*
X1534800Y3594100D02*
X1562100Y3594100D01*
X2768600Y2387600D02*
X3213100Y2387600D01*
X1955800Y3200400D02*
X2768600Y2387600D01*
X3213100Y2387600D02*
X4610100Y2387600D01*
X1955800Y2840800D02*
X1955800Y3200400D01*
X9380000Y2210000D02*
X9380000Y2660000D01*
X8072500Y1827500D02*
X8212500Y1827500D01*
X8997500Y1827500D01*
X9380000Y2210000D01*
X7740000Y2160000D02*
X8072500Y1827500D01*
X762000Y1958000D02*
X1367500Y1352500D01*
X762000Y1958000D02*
X762000Y3454400D01*
X1037500Y2622500D02*
X1387500Y2272500D01*
X905000Y2622500D02*
X1037500Y2622500D01*
X1387500Y2272500D02*
X1955800Y2840800D01*
X1387500Y2272500D02*
X1652500Y2007500D01*
X1752500Y2007500D01*
X1810000Y2065000D01*
X7740000Y2160000D02*
X7740000Y2610000D01*
X6020000Y2920000D02*
X7430000Y2920000D01*
X7740000Y2610000D01*
X4610100Y2921000D02*
X6000443Y2921000D01*
X1701800Y3454400D02*
X1955800Y3200400D01*
X4610100Y2387600D02*
X6019800Y2387600D01*
X3213100Y2921000D02*
X4610100Y2921000D01*
D44*
X1003000Y4430700D02*
D03*
X291800Y5154600D02*
D03*
X1688800Y5154600D02*
D03*
X9451000Y1740200D02*
D03*
X7774600Y1371900D02*
D03*
X8305500Y1005500D02*
D03*
X2102900Y1484600D02*
D03*
D45*
X1524000Y4504700D02*
D03*
X1397000Y4250700D02*
D03*
X1270000Y4504700D02*
D03*
X1143000Y4250700D02*
D03*
X812800Y5228600D02*
D03*
X685800Y4974600D02*
D03*
X558800Y5228600D02*
D03*
X431800Y4974600D02*
D03*
X2209800Y5228600D02*
D03*
X2082800Y4974600D02*
D03*
X1955800Y5228600D02*
D03*
X1828800Y4974600D02*
D03*
X9525000Y1219200D02*
D03*
X9271000Y1346200D02*
D03*
X9525000Y1473200D02*
D03*
X9271000Y1600200D02*
D03*
X7848600Y850900D02*
D03*
X7594600Y977900D02*
D03*
X7848600Y1104900D02*
D03*
X7594600Y1231900D02*
D03*
X8826500Y1079500D02*
D03*
X8699500Y825500D02*
D03*
X8572500Y1079500D02*
D03*
X8445500Y825500D02*
D03*
X2176900Y963600D02*
D03*
X1922900Y1090600D02*
D03*
X2176900Y1217600D02*
D03*
X1922900Y1344600D02*
D03*
D46*
X215100Y2811000D02*
D03*
X215100Y3471000D02*
D03*
D47*
X2062500Y3093700D02*
D03*
X2062500Y2980000D02*
D03*
X2003404Y3367304D02*
D03*
X2232396Y3512604D02*
D03*
X2132396Y3415104D02*
D03*
X9662500Y3797500D02*
D03*
X9612500Y3297500D02*
D03*
X9407500Y3302500D02*
D03*
X9522500Y3222500D02*
D03*
X9525000Y3377500D02*
D03*
X9520000Y3300000D02*
D03*
X9675000Y3390000D02*
D03*
X9362500Y3387500D02*
D03*
X9360000Y3210000D02*
D03*
X9675000Y3215000D02*
D03*
X9667500Y2460000D02*
D03*
X9547500Y2372500D02*
D03*
X9552500Y2450000D02*
D03*
X9560000Y2542500D02*
D03*
X9447500Y2452500D02*
D03*
X9440200Y2367500D02*
D03*
X9440200Y2545000D02*
D03*
X9680000Y2367500D02*
D03*
X9690000Y2547500D02*
D03*
X8787500Y3427500D02*
D03*
X8800600Y3092201D02*
D03*
X8785600Y3252700D02*
D03*
X8815000Y2990000D02*
D03*
X8987500Y3427500D02*
D03*
X8985601Y3252700D02*
D03*
X8970601Y3092201D02*
D03*
X9210000Y2485000D02*
D03*
X9380000Y2660000D02*
D03*
X9375000Y2960000D02*
D03*
X8510000Y1762500D02*
D03*
X8212500Y1827500D02*
D03*
X8505000Y1895000D02*
D03*
X8387500Y2017500D02*
D03*
X8392500Y1902500D02*
D03*
X7867500Y3480000D02*
D03*
X7617500Y3490000D02*
D03*
X8462500Y3477500D02*
D03*
X7360000Y3567500D02*
D03*
X1065000Y1400000D02*
D03*
X1367500Y1352500D02*
D03*
X1067500Y2075000D02*
D03*
X2040104Y1947396D02*
D03*
X905000Y2622500D02*
D03*
X330000Y2295100D02*
D03*
X1710108Y2079756D02*
D03*
X1498600Y2260600D02*
D03*
X3840000Y2175000D02*
D03*
X1695000Y2722500D02*
D03*
X1689100Y2832100D02*
D03*
X1810000Y2065000D02*
D03*
X330000Y1914100D02*
D03*
X807500Y1200000D02*
D03*
X207500Y1200000D02*
D03*
X330000Y2168100D02*
D03*
X215100Y3261000D02*
D03*
X215100Y3021000D02*
D03*
X935000Y3695000D02*
D03*
X8985000Y4780000D02*
D03*
X8215000Y4782500D02*
D03*
X7425000Y4785000D02*
D03*
X9673500Y4191000D02*
D03*
X8873400Y4191000D02*
D03*
X8086000Y4191000D02*
D03*
X3111500Y3094900D02*
D03*
X3419400Y3031900D02*
D03*
X4177500Y3035000D02*
D03*
X4345000Y3010000D02*
D03*
X5752500Y3007500D02*
D03*
X6985000Y2277500D02*
D03*
X6225000Y2270000D02*
D03*
X5760000Y2297500D02*
D03*
X5577500Y2272500D02*
D03*
X4812500Y2270000D02*
D03*
X4345000Y2285000D02*
D03*
X4177500Y2277500D02*
D03*
X3415000Y2272500D02*
D03*
X1937611Y3499711D02*
D03*
X1257300Y3958500D02*
D03*
X435700Y3810000D02*
D03*
X460100Y3461000D02*
D03*
X865000Y2982500D02*
D03*
X590000Y3010000D02*
D03*
X460100Y2821000D02*
D03*
X9410000Y3800000D02*
D03*
X8090000Y4426500D02*
D03*
X7610000Y4190000D02*
D03*
X8400000Y4190000D02*
D03*
X9190000Y4200000D02*
D03*
X2090000Y3240000D02*
D03*
X2960000Y2300000D02*
D03*
X6020000Y2920000D02*
D03*
X9670000Y4430000D02*
D03*
X8870000Y4420000D02*
D03*
X9390000Y4620000D02*
D03*
X8590000Y4620000D02*
D03*
X7800000Y4620000D02*
D03*
X8700000Y4740000D02*
D03*
X7910000Y4740000D02*
D03*
X9490000Y4739843D02*
D03*
X9292500Y2240000D02*
D03*
X9180000Y2130000D02*
D03*
X9077500Y2027500D02*
D03*
X8967500Y1917500D02*
D03*
X8840000Y1920000D02*
D03*
X8702500Y1920000D02*
D03*
X9540000Y3800000D02*
D03*
X9290000Y3800000D02*
D03*
X9610000Y5070000D02*
D03*
X8790000Y5080000D02*
D03*
X8010000Y5080000D02*
D03*
X8570000Y4850000D02*
D03*
X8320000Y4850000D02*
D03*
X8449400Y4846400D02*
D03*
X7780000Y4850000D02*
D03*
X7520000Y4850000D02*
D03*
X7658100Y4846400D02*
D03*
X7790000Y5060000D02*
D03*
X7540000Y5070000D02*
D03*
X8450000Y5045000D02*
D03*
X8330000Y5060000D02*
D03*
X8560000Y5070000D02*
D03*
X7660000Y5045000D02*
D03*
X5450000Y3420000D02*
D03*
X8360000Y3490000D02*
D03*
X5310000Y3230000D02*
D03*
X3660000Y3480000D02*
D03*
X3990000Y3310000D02*
D03*
X5000000Y3150000D02*
D03*
X9140000Y5050000D02*
D03*
X9380000Y5050000D02*
D03*
X9260000Y5035000D02*
D03*
X9610000Y4850000D02*
D03*
X9400000Y4850000D02*
D03*
X9100000Y4850000D02*
D03*
X9245600Y4846400D02*
D03*
X5067300Y2235200D02*
D03*
X2349500Y2057400D02*
D03*
X2463800Y2374900D02*
D03*
X6350000Y2184400D02*
D03*
X6477000Y2082800D02*
D03*
X6985000Y3048000D02*
D03*
X6223000Y3048000D02*
D03*
X5575300Y3048000D02*
D03*
X4813300Y3060700D02*
D03*
X1816100Y2578100D02*
D03*
X3213100Y2921000D02*
D03*
X4610100Y2921000D02*
D03*
X1955800Y2362200D02*
D03*
X1879600Y2286000D02*
D03*
X762000Y3454400D02*
D03*
X4610100Y2387600D02*
D03*
X3213100Y2387600D02*
D03*
X6019800Y2387600D02*
D03*
X1879600Y2362200D02*
D03*
X6604000Y1968500D02*
D03*
X1534800Y3594100D02*
D03*
X1701800Y3454400D02*
D03*
D55*
X9470000Y3486200D02*
D03*
D56*
X9470000Y3256200D02*
D03*
D57*
X9660500Y3803700D02*
D03*
X9533500Y3803700D02*
D03*
X9406500Y3803700D02*
D03*
X9279500Y3803700D02*
D03*
%TF.MD5,564b2d021b2063fb29b18a45c5806be9*%
M02*
