%TF.GenerationSoftware,Altium Limited,Altium Designer,22.9.1 (49)*%
G04 Layer_Color=16711935*
%FSLAX45Y45*%
%MOMM*%
%TF.SameCoordinates,925A93EA-3B44-44BF-AA41-ED200E7300F1*%
%TF.FilePolarity,Negative*%
%TF.FileFunction,Soldermask,Bot*%
%TF.Part,Single*%
G01*
G75*
%TA.AperFunction,SMDPad,CuDef*%
%ADD60R,4.40320X3.30320*%
%ADD61R,4.90320X1.70320*%
%ADD62R,0.90320X1.35320*%
%ADD63R,1.60320X1.20320*%
%ADD64R,1.30320X1.20320*%
%TA.AperFunction,ComponentPad*%
%ADD65C,0.95320*%
%ADD66C,1.50320*%
%ADD67C,2.15320*%
D60*
X9470000Y3486200D02*
D03*
D61*
X9470000Y3256200D02*
D03*
D62*
X9660500Y3803700D02*
D03*
X9533500Y3803700D02*
D03*
X9406500Y3803700D02*
D03*
X9279500Y3803700D02*
D03*
D63*
X7510000Y4880000D02*
D03*
X7510000Y5080000D02*
D03*
X7820000Y5080000D02*
D03*
X7820000Y4880000D02*
D03*
X9100000Y5070000D02*
D03*
X9100000Y4870000D02*
D03*
X9610000Y5070000D02*
D03*
X9610000Y4870000D02*
D03*
X8300000Y5080000D02*
D03*
X8300000Y4880000D02*
D03*
X8600000Y5080000D02*
D03*
X8600000Y4880000D02*
D03*
X8010000Y4880000D02*
D03*
X8010000Y5080000D02*
D03*
X8790000Y4880000D02*
D03*
X8790000Y5080000D02*
D03*
X9420000Y4870000D02*
D03*
X9420000Y5070000D02*
D03*
D64*
X8860000Y4616500D02*
D03*
X8860000Y4446500D02*
D03*
X8707700Y4446500D02*
D03*
X8707700Y4616500D02*
D03*
X7917699Y4446500D02*
D03*
X7917699Y4616500D02*
D03*
X8070000Y4616500D02*
D03*
X8070000Y4446500D02*
D03*
X9660000Y4616500D02*
D03*
X9660000Y4446500D02*
D03*
X9507700Y4446500D02*
D03*
X9507700Y4616500D02*
D03*
X7660000Y4875000D02*
D03*
X7660000Y5045000D02*
D03*
X8450000Y4875000D02*
D03*
X8450000Y5045000D02*
D03*
X9260000Y4875000D02*
D03*
X9260000Y5045000D02*
D03*
D65*
X1003000Y4430700D02*
D03*
X291800Y5154600D02*
D03*
X1688800Y5154600D02*
D03*
X9451000Y1740200D02*
D03*
X7774600Y1371900D02*
D03*
X8305500Y1005500D02*
D03*
X2102900Y1484600D02*
D03*
D66*
X1524000Y4504700D02*
D03*
X1397000Y4250700D02*
D03*
X1270000Y4504700D02*
D03*
X1143000Y4250700D02*
D03*
X812800Y5228600D02*
D03*
X685800Y4974600D02*
D03*
X558800Y5228600D02*
D03*
X431800Y4974600D02*
D03*
X2209800Y5228600D02*
D03*
X2082800Y4974600D02*
D03*
X1955800Y5228600D02*
D03*
X1828800Y4974600D02*
D03*
X9525000Y1219200D02*
D03*
X9271000Y1346200D02*
D03*
X9525000Y1473200D02*
D03*
X9271000Y1600200D02*
D03*
X7848600Y850900D02*
D03*
X7594600Y977900D02*
D03*
X7848600Y1104900D02*
D03*
X7594600Y1231900D02*
D03*
X8826500Y1079500D02*
D03*
X8699500Y825500D02*
D03*
X8572500Y1079500D02*
D03*
X8445500Y825500D02*
D03*
X2176900Y963600D02*
D03*
X1922900Y1090600D02*
D03*
X2176900Y1217600D02*
D03*
X1922900Y1344600D02*
D03*
D67*
X215100Y2811000D02*
D03*
X215100Y3471000D02*
D03*
%TF.MD5,df9d3a5927a18cb2f78e925b382f908a*%
M02*
